<?xml version="1.0" encoding="utf-8" standalone="no"?>
<!DOCTYPE svg PUBLIC "-//W3C//DTD SVG 1.1//EN"
  "http://www.w3.org/Graphics/SVG/1.1/DTD/svg11.dtd">
<!-- Created with matplotlib (https://matplotlib.org/) -->
<svg height="388.844525pt" version="1.1" viewBox="0 0 1000.358125 388.844525" width="1000.358125pt" xmlns="http://www.w3.org/2000/svg" xmlns:xlink="http://www.w3.org/1999/xlink">
 <defs>
  <style type="text/css">
*{stroke-linecap:butt;stroke-linejoin:round;}
  </style>
 </defs>
 <g id="figure_1">
  <g id="axes_1">
   <g id="patch_1">
    <path d="M 32.968125 353.2239 
L 993.158125 353.2239 
L 993.158125 35.2559 
L 32.968125 35.2559 
z
" style="fill:#ffffff;"/>
   </g>
   <g id="matplotlib.axis_1">
    <g id="xtick_1">
     <g id="text_1">
      <!-- 0 -->
      <defs>
       <path d="M 31.78125 66.40625 
Q 24.171875 66.40625 20.328125 58.90625 
Q 16.5 51.421875 16.5 36.375 
Q 16.5 21.390625 20.328125 13.890625 
Q 24.171875 6.390625 31.78125 6.390625 
Q 39.453125 6.390625 43.28125 13.890625 
Q 47.125 21.390625 47.125 36.375 
Q 47.125 51.421875 43.28125 58.90625 
Q 39.453125 66.40625 31.78125 66.40625 
z
M 31.78125 74.21875 
Q 44.046875 74.21875 50.515625 64.515625 
Q 56.984375 54.828125 56.984375 36.375 
Q 56.984375 17.96875 50.515625 8.265625 
Q 44.046875 -1.421875 31.78125 -1.421875 
Q 19.53125 -1.421875 13.0625 8.265625 
Q 6.59375 17.96875 6.59375 36.375 
Q 6.59375 54.828125 13.0625 64.515625 
Q 19.53125 74.21875 31.78125 74.21875 
z
" id="DejaVuSans-48"/>
      </defs>
      <g transform="translate(68.209736 366.30265)scale(0.08 -0.08)">
       <use xlink:href="#DejaVuSans-48"/>
      </g>
     </g>
    </g>
    <g id="xtick_2">
     <g id="text_2">
      <!-- 20 -->
      <defs>
       <path d="M 19.1875 8.296875 
L 53.609375 8.296875 
L 53.609375 0 
L 7.328125 0 
L 7.328125 8.296875 
Q 12.9375 14.109375 22.625 23.890625 
Q 32.328125 33.6875 34.8125 36.53125 
Q 39.546875 41.84375 41.421875 45.53125 
Q 43.3125 49.21875 43.3125 52.78125 
Q 43.3125 58.59375 39.234375 62.25 
Q 35.15625 65.921875 28.609375 65.921875 
Q 23.96875 65.921875 18.8125 64.3125 
Q 13.671875 62.703125 7.8125 59.421875 
L 7.8125 69.390625 
Q 13.765625 71.78125 18.9375 73 
Q 24.125 74.21875 28.421875 74.21875 
Q 39.75 74.21875 46.484375 68.546875 
Q 53.21875 62.890625 53.21875 53.421875 
Q 53.21875 48.921875 51.53125 44.890625 
Q 49.859375 40.875 45.40625 35.40625 
Q 44.1875 33.984375 37.640625 27.21875 
Q 31.109375 20.453125 19.1875 8.296875 
z
" id="DejaVuSans-50"/>
      </defs>
      <g transform="translate(182.832521 366.30265)scale(0.08 -0.08)">
       <use xlink:href="#DejaVuSans-50"/>
       <use x="63.623047" xlink:href="#DejaVuSans-48"/>
      </g>
     </g>
    </g>
    <g id="xtick_3">
     <g id="text_3">
      <!-- 40 -->
      <defs>
       <path d="M 37.796875 64.3125 
L 12.890625 25.390625 
L 37.796875 25.390625 
z
M 35.203125 72.90625 
L 47.609375 72.90625 
L 47.609375 25.390625 
L 58.015625 25.390625 
L 58.015625 17.1875 
L 47.609375 17.1875 
L 47.609375 0 
L 37.796875 0 
L 37.796875 17.1875 
L 4.890625 17.1875 
L 4.890625 26.703125 
z
" id="DejaVuSans-52"/>
      </defs>
      <g transform="translate(300.000306 366.30265)scale(0.08 -0.08)">
       <use xlink:href="#DejaVuSans-52"/>
       <use x="63.623047" xlink:href="#DejaVuSans-48"/>
      </g>
     </g>
    </g>
    <g id="xtick_4">
     <g id="text_4">
      <!-- 60 -->
      <defs>
       <path d="M 33.015625 40.375 
Q 26.375 40.375 22.484375 35.828125 
Q 18.609375 31.296875 18.609375 23.390625 
Q 18.609375 15.53125 22.484375 10.953125 
Q 26.375 6.390625 33.015625 6.390625 
Q 39.65625 6.390625 43.53125 10.953125 
Q 47.40625 15.53125 47.40625 23.390625 
Q 47.40625 31.296875 43.53125 35.828125 
Q 39.65625 40.375 33.015625 40.375 
z
M 52.59375 71.296875 
L 52.59375 62.3125 
Q 48.875 64.0625 45.09375 64.984375 
Q 41.3125 65.921875 37.59375 65.921875 
Q 27.828125 65.921875 22.671875 59.328125 
Q 17.53125 52.734375 16.796875 39.40625 
Q 19.671875 43.65625 24.015625 45.921875 
Q 28.375 48.1875 33.59375 48.1875 
Q 44.578125 48.1875 50.953125 41.515625 
Q 57.328125 34.859375 57.328125 23.390625 
Q 57.328125 12.15625 50.6875 5.359375 
Q 44.046875 -1.421875 33.015625 -1.421875 
Q 20.359375 -1.421875 13.671875 8.265625 
Q 6.984375 17.96875 6.984375 36.375 
Q 6.984375 53.65625 15.1875 63.9375 
Q 23.390625 74.21875 37.203125 74.21875 
Q 40.921875 74.21875 44.703125 73.484375 
Q 48.484375 72.75 52.59375 71.296875 
z
" id="DejaVuSans-54"/>
      </defs>
      <g transform="translate(417.168091 366.30265)scale(0.08 -0.08)">
       <use xlink:href="#DejaVuSans-54"/>
       <use x="63.623047" xlink:href="#DejaVuSans-48"/>
      </g>
     </g>
    </g>
    <g id="xtick_5">
     <g id="text_5">
      <!-- 80 -->
      <defs>
       <path d="M 31.78125 34.625 
Q 24.75 34.625 20.71875 30.859375 
Q 16.703125 27.09375 16.703125 20.515625 
Q 16.703125 13.921875 20.71875 10.15625 
Q 24.75 6.390625 31.78125 6.390625 
Q 38.8125 6.390625 42.859375 10.171875 
Q 46.921875 13.96875 46.921875 20.515625 
Q 46.921875 27.09375 42.890625 30.859375 
Q 38.875 34.625 31.78125 34.625 
z
M 21.921875 38.8125 
Q 15.578125 40.375 12.03125 44.71875 
Q 8.5 49.078125 8.5 55.328125 
Q 8.5 64.0625 14.71875 69.140625 
Q 20.953125 74.21875 31.78125 74.21875 
Q 42.671875 74.21875 48.875 69.140625 
Q 55.078125 64.0625 55.078125 55.328125 
Q 55.078125 49.078125 51.53125 44.71875 
Q 48 40.375 41.703125 38.8125 
Q 48.828125 37.15625 52.796875 32.3125 
Q 56.78125 27.484375 56.78125 20.515625 
Q 56.78125 9.90625 50.3125 4.234375 
Q 43.84375 -1.421875 31.78125 -1.421875 
Q 19.734375 -1.421875 13.25 4.234375 
Q 6.78125 9.90625 6.78125 20.515625 
Q 6.78125 27.484375 10.78125 32.3125 
Q 14.796875 37.15625 21.921875 38.8125 
z
M 18.3125 54.390625 
Q 18.3125 48.734375 21.84375 45.5625 
Q 25.390625 42.390625 31.78125 42.390625 
Q 38.140625 42.390625 41.71875 45.5625 
Q 45.3125 48.734375 45.3125 54.390625 
Q 45.3125 60.0625 41.71875 63.234375 
Q 38.140625 66.40625 31.78125 66.40625 
Q 25.390625 66.40625 21.84375 63.234375 
Q 18.3125 60.0625 18.3125 54.390625 
z
" id="DejaVuSans-56"/>
      </defs>
      <g transform="translate(534.335877 366.30265)scale(0.08 -0.08)">
       <use xlink:href="#DejaVuSans-56"/>
       <use x="63.623047" xlink:href="#DejaVuSans-48"/>
      </g>
     </g>
    </g>
    <g id="xtick_6">
     <g id="text_6">
      <!-- 100 -->
      <defs>
       <path d="M 12.40625 8.296875 
L 28.515625 8.296875 
L 28.515625 63.921875 
L 10.984375 60.40625 
L 10.984375 69.390625 
L 28.421875 72.90625 
L 38.28125 72.90625 
L 38.28125 8.296875 
L 54.390625 8.296875 
L 54.390625 0 
L 12.40625 0 
z
" id="DejaVuSans-49"/>
      </defs>
      <g transform="translate(648.958662 366.30265)scale(0.08 -0.08)">
       <use xlink:href="#DejaVuSans-49"/>
       <use x="63.623047" xlink:href="#DejaVuSans-48"/>
       <use x="127.246094" xlink:href="#DejaVuSans-48"/>
      </g>
     </g>
    </g>
    <g id="xtick_7">
     <g id="text_7">
      <!-- 120 -->
      <g transform="translate(766.126447 366.30265)scale(0.08 -0.08)">
       <use xlink:href="#DejaVuSans-49"/>
       <use x="63.623047" xlink:href="#DejaVuSans-50"/>
       <use x="127.246094" xlink:href="#DejaVuSans-48"/>
      </g>
     </g>
    </g>
    <g id="xtick_8">
     <g id="text_8">
      <!-- 140 -->
      <g transform="translate(883.294232 366.30265)scale(0.08 -0.08)">
       <use xlink:href="#DejaVuSans-49"/>
       <use x="63.623047" xlink:href="#DejaVuSans-52"/>
       <use x="127.246094" xlink:href="#DejaVuSans-48"/>
      </g>
     </g>
    </g>
    <g id="text_9">
     <!-- Read Position -->
     <defs>
      <path d="M 44.390625 34.1875 
Q 47.5625 33.109375 50.5625 29.59375 
Q 53.5625 26.078125 56.59375 19.921875 
L 66.609375 0 
L 56 0 
L 46.6875 18.703125 
Q 43.0625 26.03125 39.671875 28.421875 
Q 36.28125 30.8125 30.421875 30.8125 
L 19.671875 30.8125 
L 19.671875 0 
L 9.8125 0 
L 9.8125 72.90625 
L 32.078125 72.90625 
Q 44.578125 72.90625 50.734375 67.671875 
Q 56.890625 62.453125 56.890625 51.90625 
Q 56.890625 45.015625 53.6875 40.46875 
Q 50.484375 35.9375 44.390625 34.1875 
z
M 19.671875 64.796875 
L 19.671875 38.921875 
L 32.078125 38.921875 
Q 39.203125 38.921875 42.84375 42.21875 
Q 46.484375 45.515625 46.484375 51.90625 
Q 46.484375 58.296875 42.84375 61.546875 
Q 39.203125 64.796875 32.078125 64.796875 
z
" id="DejaVuSans-82"/>
      <path d="M 56.203125 29.59375 
L 56.203125 25.203125 
L 14.890625 25.203125 
Q 15.484375 15.921875 20.484375 11.0625 
Q 25.484375 6.203125 34.421875 6.203125 
Q 39.59375 6.203125 44.453125 7.46875 
Q 49.3125 8.734375 54.109375 11.28125 
L 54.109375 2.78125 
Q 49.265625 0.734375 44.1875 -0.34375 
Q 39.109375 -1.421875 33.890625 -1.421875 
Q 20.796875 -1.421875 13.15625 6.1875 
Q 5.515625 13.8125 5.515625 26.8125 
Q 5.515625 40.234375 12.765625 48.109375 
Q 20.015625 56 32.328125 56 
Q 43.359375 56 49.78125 48.890625 
Q 56.203125 41.796875 56.203125 29.59375 
z
M 47.21875 32.234375 
Q 47.125 39.59375 43.09375 43.984375 
Q 39.0625 48.390625 32.421875 48.390625 
Q 24.90625 48.390625 20.390625 44.140625 
Q 15.875 39.890625 15.1875 32.171875 
z
" id="DejaVuSans-101"/>
      <path d="M 34.28125 27.484375 
Q 23.390625 27.484375 19.1875 25 
Q 14.984375 22.515625 14.984375 16.5 
Q 14.984375 11.71875 18.140625 8.90625 
Q 21.296875 6.109375 26.703125 6.109375 
Q 34.1875 6.109375 38.703125 11.40625 
Q 43.21875 16.703125 43.21875 25.484375 
L 43.21875 27.484375 
z
M 52.203125 31.203125 
L 52.203125 0 
L 43.21875 0 
L 43.21875 8.296875 
Q 40.140625 3.328125 35.546875 0.953125 
Q 30.953125 -1.421875 24.3125 -1.421875 
Q 15.921875 -1.421875 10.953125 3.296875 
Q 6 8.015625 6 15.921875 
Q 6 25.140625 12.171875 29.828125 
Q 18.359375 34.515625 30.609375 34.515625 
L 43.21875 34.515625 
L 43.21875 35.40625 
Q 43.21875 41.609375 39.140625 45 
Q 35.0625 48.390625 27.6875 48.390625 
Q 23 48.390625 18.546875 47.265625 
Q 14.109375 46.140625 10.015625 43.890625 
L 10.015625 52.203125 
Q 14.9375 54.109375 19.578125 55.046875 
Q 24.21875 56 28.609375 56 
Q 40.484375 56 46.34375 49.84375 
Q 52.203125 43.703125 52.203125 31.203125 
z
" id="DejaVuSans-97"/>
      <path d="M 45.40625 46.390625 
L 45.40625 75.984375 
L 54.390625 75.984375 
L 54.390625 0 
L 45.40625 0 
L 45.40625 8.203125 
Q 42.578125 3.328125 38.25 0.953125 
Q 33.9375 -1.421875 27.875 -1.421875 
Q 17.96875 -1.421875 11.734375 6.484375 
Q 5.515625 14.40625 5.515625 27.296875 
Q 5.515625 40.1875 11.734375 48.09375 
Q 17.96875 56 27.875 56 
Q 33.9375 56 38.25 53.625 
Q 42.578125 51.265625 45.40625 46.390625 
z
M 14.796875 27.296875 
Q 14.796875 17.390625 18.875 11.75 
Q 22.953125 6.109375 30.078125 6.109375 
Q 37.203125 6.109375 41.296875 11.75 
Q 45.40625 17.390625 45.40625 27.296875 
Q 45.40625 37.203125 41.296875 42.84375 
Q 37.203125 48.484375 30.078125 48.484375 
Q 22.953125 48.484375 18.875 42.84375 
Q 14.796875 37.203125 14.796875 27.296875 
z
" id="DejaVuSans-100"/>
      <path id="DejaVuSans-32"/>
      <path d="M 19.671875 64.796875 
L 19.671875 37.40625 
L 32.078125 37.40625 
Q 38.96875 37.40625 42.71875 40.96875 
Q 46.484375 44.53125 46.484375 51.125 
Q 46.484375 57.671875 42.71875 61.234375 
Q 38.96875 64.796875 32.078125 64.796875 
z
M 9.8125 72.90625 
L 32.078125 72.90625 
Q 44.34375 72.90625 50.609375 67.359375 
Q 56.890625 61.8125 56.890625 51.125 
Q 56.890625 40.328125 50.609375 34.8125 
Q 44.34375 29.296875 32.078125 29.296875 
L 19.671875 29.296875 
L 19.671875 0 
L 9.8125 0 
z
" id="DejaVuSans-80"/>
      <path d="M 30.609375 48.390625 
Q 23.390625 48.390625 19.1875 42.75 
Q 14.984375 37.109375 14.984375 27.296875 
Q 14.984375 17.484375 19.15625 11.84375 
Q 23.34375 6.203125 30.609375 6.203125 
Q 37.796875 6.203125 41.984375 11.859375 
Q 46.1875 17.53125 46.1875 27.296875 
Q 46.1875 37.015625 41.984375 42.703125 
Q 37.796875 48.390625 30.609375 48.390625 
z
M 30.609375 56 
Q 42.328125 56 49.015625 48.375 
Q 55.71875 40.765625 55.71875 27.296875 
Q 55.71875 13.875 49.015625 6.21875 
Q 42.328125 -1.421875 30.609375 -1.421875 
Q 18.84375 -1.421875 12.171875 6.21875 
Q 5.515625 13.875 5.515625 27.296875 
Q 5.515625 40.765625 12.171875 48.375 
Q 18.84375 56 30.609375 56 
z
" id="DejaVuSans-111"/>
      <path d="M 44.28125 53.078125 
L 44.28125 44.578125 
Q 40.484375 46.53125 36.375 47.5 
Q 32.28125 48.484375 27.875 48.484375 
Q 21.1875 48.484375 17.84375 46.4375 
Q 14.5 44.390625 14.5 40.28125 
Q 14.5 37.15625 16.890625 35.375 
Q 19.28125 33.59375 26.515625 31.984375 
L 29.59375 31.296875 
Q 39.15625 29.25 43.1875 25.515625 
Q 47.21875 21.78125 47.21875 15.09375 
Q 47.21875 7.46875 41.1875 3.015625 
Q 35.15625 -1.421875 24.609375 -1.421875 
Q 20.21875 -1.421875 15.453125 -0.5625 
Q 10.6875 0.296875 5.421875 2 
L 5.421875 11.28125 
Q 10.40625 8.6875 15.234375 7.390625 
Q 20.0625 6.109375 24.8125 6.109375 
Q 31.15625 6.109375 34.5625 8.28125 
Q 37.984375 10.453125 37.984375 14.40625 
Q 37.984375 18.0625 35.515625 20.015625 
Q 33.0625 21.96875 24.703125 23.78125 
L 21.578125 24.515625 
Q 13.234375 26.265625 9.515625 29.90625 
Q 5.8125 33.546875 5.8125 39.890625 
Q 5.8125 47.609375 11.28125 51.796875 
Q 16.75 56 26.8125 56 
Q 31.78125 56 36.171875 55.265625 
Q 40.578125 54.546875 44.28125 53.078125 
z
" id="DejaVuSans-115"/>
      <path d="M 9.421875 54.6875 
L 18.40625 54.6875 
L 18.40625 0 
L 9.421875 0 
z
M 9.421875 75.984375 
L 18.40625 75.984375 
L 18.40625 64.59375 
L 9.421875 64.59375 
z
" id="DejaVuSans-105"/>
      <path d="M 18.3125 70.21875 
L 18.3125 54.6875 
L 36.8125 54.6875 
L 36.8125 47.703125 
L 18.3125 47.703125 
L 18.3125 18.015625 
Q 18.3125 11.328125 20.140625 9.421875 
Q 21.96875 7.515625 27.59375 7.515625 
L 36.8125 7.515625 
L 36.8125 0 
L 27.59375 0 
Q 17.1875 0 13.234375 3.875 
Q 9.28125 7.765625 9.28125 18.015625 
L 9.28125 47.703125 
L 2.6875 47.703125 
L 2.6875 54.6875 
L 9.28125 54.6875 
L 9.28125 70.21875 
z
" id="DejaVuSans-116"/>
      <path d="M 54.890625 33.015625 
L 54.890625 0 
L 45.90625 0 
L 45.90625 32.71875 
Q 45.90625 40.484375 42.875 44.328125 
Q 39.84375 48.1875 33.796875 48.1875 
Q 26.515625 48.1875 22.3125 43.546875 
Q 18.109375 38.921875 18.109375 30.90625 
L 18.109375 0 
L 9.078125 0 
L 9.078125 54.6875 
L 18.109375 54.6875 
L 18.109375 46.1875 
Q 21.34375 51.125 25.703125 53.5625 
Q 30.078125 56 35.796875 56 
Q 45.21875 56 50.046875 50.171875 
Q 54.890625 44.34375 54.890625 33.015625 
z
" id="DejaVuSans-110"/>
     </defs>
     <g transform="translate(479.045156 379.564837)scale(0.1 -0.1)">
      <use xlink:href="#DejaVuSans-82"/>
      <use x="69.419922" xlink:href="#DejaVuSans-101"/>
      <use x="130.943359" xlink:href="#DejaVuSans-97"/>
      <use x="192.222656" xlink:href="#DejaVuSans-100"/>
      <use x="255.699219" xlink:href="#DejaVuSans-32"/>
      <use x="287.486328" xlink:href="#DejaVuSans-80"/>
      <use x="347.742188" xlink:href="#DejaVuSans-111"/>
      <use x="408.923828" xlink:href="#DejaVuSans-115"/>
      <use x="461.023438" xlink:href="#DejaVuSans-105"/>
      <use x="488.806641" xlink:href="#DejaVuSans-116"/>
      <use x="528.015625" xlink:href="#DejaVuSans-105"/>
      <use x="555.798828" xlink:href="#DejaVuSans-111"/>
      <use x="616.980469" xlink:href="#DejaVuSans-110"/>
     </g>
    </g>
   </g>
   <g id="matplotlib.axis_2">
    <g id="ytick_1">
     <g id="line2d_1">
      <path clip-path="url(#pc863197a52)" d="M 32.968125 353.2239 
L 993.158125 353.2239 
" style="fill:none;stroke:#dedede;stroke-linecap:square;"/>
     </g>
     <g id="text_10">
      <!-- 0 -->
      <g transform="translate(20.878125 356.263275)scale(0.08 -0.08)">
       <use xlink:href="#DejaVuSans-48"/>
      </g>
     </g>
    </g>
    <g id="ytick_2">
     <g id="line2d_2">
      <path clip-path="url(#pc863197a52)" d="M 32.968125 289.6303 
L 993.158125 289.6303 
" style="fill:none;stroke:#dedede;stroke-linecap:square;"/>
     </g>
     <g id="text_11">
      <!-- 1 -->
      <g transform="translate(20.878125 292.669675)scale(0.08 -0.08)">
       <use xlink:href="#DejaVuSans-49"/>
      </g>
     </g>
    </g>
    <g id="ytick_3">
     <g id="line2d_3">
      <path clip-path="url(#pc863197a52)" d="M 32.968125 226.0367 
L 993.158125 226.0367 
" style="fill:none;stroke:#dedede;stroke-linecap:square;"/>
     </g>
     <g id="text_12">
      <!-- 2 -->
      <g transform="translate(20.878125 229.076075)scale(0.08 -0.08)">
       <use xlink:href="#DejaVuSans-50"/>
      </g>
     </g>
    </g>
    <g id="ytick_4">
     <g id="line2d_4">
      <path clip-path="url(#pc863197a52)" d="M 32.968125 162.4431 
L 993.158125 162.4431 
" style="fill:none;stroke:#dedede;stroke-linecap:square;"/>
     </g>
     <g id="text_13">
      <!-- 3 -->
      <defs>
       <path d="M 40.578125 39.3125 
Q 47.65625 37.796875 51.625 33 
Q 55.609375 28.21875 55.609375 21.1875 
Q 55.609375 10.40625 48.1875 4.484375 
Q 40.765625 -1.421875 27.09375 -1.421875 
Q 22.515625 -1.421875 17.65625 -0.515625 
Q 12.796875 0.390625 7.625 2.203125 
L 7.625 11.71875 
Q 11.71875 9.328125 16.59375 8.109375 
Q 21.484375 6.890625 26.8125 6.890625 
Q 36.078125 6.890625 40.9375 10.546875 
Q 45.796875 14.203125 45.796875 21.1875 
Q 45.796875 27.640625 41.28125 31.265625 
Q 36.765625 34.90625 28.71875 34.90625 
L 20.21875 34.90625 
L 20.21875 43.015625 
L 29.109375 43.015625 
Q 36.375 43.015625 40.234375 45.921875 
Q 44.09375 48.828125 44.09375 54.296875 
Q 44.09375 59.90625 40.109375 62.90625 
Q 36.140625 65.921875 28.71875 65.921875 
Q 24.65625 65.921875 20.015625 65.03125 
Q 15.375 64.15625 9.8125 62.3125 
L 9.8125 71.09375 
Q 15.4375 72.65625 20.34375 73.4375 
Q 25.25 74.21875 29.59375 74.21875 
Q 40.828125 74.21875 47.359375 69.109375 
Q 53.90625 64.015625 53.90625 55.328125 
Q 53.90625 49.265625 50.4375 45.09375 
Q 46.96875 40.921875 40.578125 39.3125 
z
" id="DejaVuSans-51"/>
      </defs>
      <g transform="translate(20.878125 165.482475)scale(0.08 -0.08)">
       <use xlink:href="#DejaVuSans-51"/>
      </g>
     </g>
    </g>
    <g id="ytick_5">
     <g id="line2d_5">
      <path clip-path="url(#pc863197a52)" d="M 32.968125 98.8495 
L 993.158125 98.8495 
" style="fill:none;stroke:#dedede;stroke-linecap:square;"/>
     </g>
     <g id="text_14">
      <!-- 4 -->
      <g transform="translate(20.878125 101.888875)scale(0.08 -0.08)">
       <use xlink:href="#DejaVuSans-52"/>
      </g>
     </g>
    </g>
    <g id="ytick_6">
     <g id="line2d_6">
      <path clip-path="url(#pc863197a52)" d="M 32.968125 35.2559 
L 993.158125 35.2559 
" style="fill:none;stroke:#dedede;stroke-linecap:square;"/>
     </g>
     <g id="text_15">
      <!-- 5 -->
      <defs>
       <path d="M 10.796875 72.90625 
L 49.515625 72.90625 
L 49.515625 64.59375 
L 19.828125 64.59375 
L 19.828125 46.734375 
Q 21.96875 47.46875 24.109375 47.828125 
Q 26.265625 48.1875 28.421875 48.1875 
Q 40.625 48.1875 47.75 41.5 
Q 54.890625 34.8125 54.890625 23.390625 
Q 54.890625 11.625 47.5625 5.09375 
Q 40.234375 -1.421875 26.90625 -1.421875 
Q 22.3125 -1.421875 17.546875 -0.640625 
Q 12.796875 0.140625 7.71875 1.703125 
L 7.71875 11.625 
Q 12.109375 9.234375 16.796875 8.0625 
Q 21.484375 6.890625 26.703125 6.890625 
Q 35.15625 6.890625 40.078125 11.328125 
Q 45.015625 15.765625 45.015625 23.390625 
Q 45.015625 31 40.078125 35.4375 
Q 35.15625 39.890625 26.703125 39.890625 
Q 22.75 39.890625 18.8125 39.015625 
Q 14.890625 38.140625 10.796875 36.28125 
z
" id="DejaVuSans-53"/>
      </defs>
      <g transform="translate(20.878125 38.295275)scale(0.08 -0.08)">
       <use xlink:href="#DejaVuSans-53"/>
      </g>
     </g>
    </g>
    <g id="text_16">
     <!-- R2 After filtering: Base Content Percent -->
     <defs>
      <path d="M 34.1875 63.1875 
L 20.796875 26.90625 
L 47.609375 26.90625 
z
M 28.609375 72.90625 
L 39.796875 72.90625 
L 67.578125 0 
L 57.328125 0 
L 50.6875 18.703125 
L 17.828125 18.703125 
L 11.1875 0 
L 0.78125 0 
z
" id="DejaVuSans-65"/>
      <path d="M 37.109375 75.984375 
L 37.109375 68.5 
L 28.515625 68.5 
Q 23.6875 68.5 21.796875 66.546875 
Q 19.921875 64.59375 19.921875 59.515625 
L 19.921875 54.6875 
L 34.71875 54.6875 
L 34.71875 47.703125 
L 19.921875 47.703125 
L 19.921875 0 
L 10.890625 0 
L 10.890625 47.703125 
L 2.296875 47.703125 
L 2.296875 54.6875 
L 10.890625 54.6875 
L 10.890625 58.5 
Q 10.890625 67.625 15.140625 71.796875 
Q 19.390625 75.984375 28.609375 75.984375 
z
" id="DejaVuSans-102"/>
      <path d="M 41.109375 46.296875 
Q 39.59375 47.171875 37.8125 47.578125 
Q 36.03125 48 33.890625 48 
Q 26.265625 48 22.1875 43.046875 
Q 18.109375 38.09375 18.109375 28.8125 
L 18.109375 0 
L 9.078125 0 
L 9.078125 54.6875 
L 18.109375 54.6875 
L 18.109375 46.1875 
Q 20.953125 51.171875 25.484375 53.578125 
Q 30.03125 56 36.53125 56 
Q 37.453125 56 38.578125 55.875 
Q 39.703125 55.765625 41.0625 55.515625 
z
" id="DejaVuSans-114"/>
      <path d="M 9.421875 75.984375 
L 18.40625 75.984375 
L 18.40625 0 
L 9.421875 0 
z
" id="DejaVuSans-108"/>
      <path d="M 45.40625 27.984375 
Q 45.40625 37.75 41.375 43.109375 
Q 37.359375 48.484375 30.078125 48.484375 
Q 22.859375 48.484375 18.828125 43.109375 
Q 14.796875 37.75 14.796875 27.984375 
Q 14.796875 18.265625 18.828125 12.890625 
Q 22.859375 7.515625 30.078125 7.515625 
Q 37.359375 7.515625 41.375 12.890625 
Q 45.40625 18.265625 45.40625 27.984375 
z
M 54.390625 6.78125 
Q 54.390625 -7.171875 48.1875 -13.984375 
Q 42 -20.796875 29.203125 -20.796875 
Q 24.46875 -20.796875 20.265625 -20.09375 
Q 16.0625 -19.390625 12.109375 -17.921875 
L 12.109375 -9.1875 
Q 16.0625 -11.328125 19.921875 -12.34375 
Q 23.78125 -13.375 27.78125 -13.375 
Q 36.625 -13.375 41.015625 -8.765625 
Q 45.40625 -4.15625 45.40625 5.171875 
L 45.40625 9.625 
Q 42.625 4.78125 38.28125 2.390625 
Q 33.9375 0 27.875 0 
Q 17.828125 0 11.671875 7.65625 
Q 5.515625 15.328125 5.515625 27.984375 
Q 5.515625 40.671875 11.671875 48.328125 
Q 17.828125 56 27.875 56 
Q 33.9375 56 38.28125 53.609375 
Q 42.625 51.21875 45.40625 46.390625 
L 45.40625 54.6875 
L 54.390625 54.6875 
z
" id="DejaVuSans-103"/>
      <path d="M 11.71875 12.40625 
L 22.015625 12.40625 
L 22.015625 0 
L 11.71875 0 
z
M 11.71875 51.703125 
L 22.015625 51.703125 
L 22.015625 39.3125 
L 11.71875 39.3125 
z
" id="DejaVuSans-58"/>
      <path d="M 19.671875 34.8125 
L 19.671875 8.109375 
L 35.5 8.109375 
Q 43.453125 8.109375 47.28125 11.40625 
Q 51.125 14.703125 51.125 21.484375 
Q 51.125 28.328125 47.28125 31.5625 
Q 43.453125 34.8125 35.5 34.8125 
z
M 19.671875 64.796875 
L 19.671875 42.828125 
L 34.28125 42.828125 
Q 41.5 42.828125 45.03125 45.53125 
Q 48.578125 48.25 48.578125 53.8125 
Q 48.578125 59.328125 45.03125 62.0625 
Q 41.5 64.796875 34.28125 64.796875 
z
M 9.8125 72.90625 
L 35.015625 72.90625 
Q 46.296875 72.90625 52.390625 68.21875 
Q 58.5 63.53125 58.5 54.890625 
Q 58.5 48.1875 55.375 44.234375 
Q 52.25 40.28125 46.1875 39.3125 
Q 53.46875 37.75 57.5 32.78125 
Q 61.53125 27.828125 61.53125 20.40625 
Q 61.53125 10.640625 54.890625 5.3125 
Q 48.25 0 35.984375 0 
L 9.8125 0 
z
" id="DejaVuSans-66"/>
      <path d="M 64.40625 67.28125 
L 64.40625 56.890625 
Q 59.421875 61.53125 53.78125 63.8125 
Q 48.140625 66.109375 41.796875 66.109375 
Q 29.296875 66.109375 22.65625 58.46875 
Q 16.015625 50.828125 16.015625 36.375 
Q 16.015625 21.96875 22.65625 14.328125 
Q 29.296875 6.6875 41.796875 6.6875 
Q 48.140625 6.6875 53.78125 8.984375 
Q 59.421875 11.28125 64.40625 15.921875 
L 64.40625 5.609375 
Q 59.234375 2.09375 53.4375 0.328125 
Q 47.65625 -1.421875 41.21875 -1.421875 
Q 24.65625 -1.421875 15.125 8.703125 
Q 5.609375 18.84375 5.609375 36.375 
Q 5.609375 53.953125 15.125 64.078125 
Q 24.65625 74.21875 41.21875 74.21875 
Q 47.75 74.21875 53.53125 72.484375 
Q 59.328125 70.75 64.40625 67.28125 
z
" id="DejaVuSans-67"/>
      <path d="M 48.78125 52.59375 
L 48.78125 44.1875 
Q 44.96875 46.296875 41.140625 47.34375 
Q 37.3125 48.390625 33.40625 48.390625 
Q 24.65625 48.390625 19.8125 42.84375 
Q 14.984375 37.3125 14.984375 27.296875 
Q 14.984375 17.28125 19.8125 11.734375 
Q 24.65625 6.203125 33.40625 6.203125 
Q 37.3125 6.203125 41.140625 7.25 
Q 44.96875 8.296875 48.78125 10.40625 
L 48.78125 2.09375 
Q 45.015625 0.34375 40.984375 -0.53125 
Q 36.96875 -1.421875 32.421875 -1.421875 
Q 20.0625 -1.421875 12.78125 6.34375 
Q 5.515625 14.109375 5.515625 27.296875 
Q 5.515625 40.671875 12.859375 48.328125 
Q 20.21875 56 33.015625 56 
Q 37.15625 56 41.109375 55.140625 
Q 45.0625 54.296875 48.78125 52.59375 
z
" id="DejaVuSans-99"/>
     </defs>
     <g transform="translate(14.798438 293.315681)rotate(-90)scale(0.1 -0.1)">
      <use xlink:href="#DejaVuSans-82"/>
      <use x="69.482422" xlink:href="#DejaVuSans-50"/>
      <use x="133.105469" xlink:href="#DejaVuSans-32"/>
      <use x="164.892578" xlink:href="#DejaVuSans-65"/>
      <use x="233.253906" xlink:href="#DejaVuSans-102"/>
      <use x="268.443359" xlink:href="#DejaVuSans-116"/>
      <use x="307.652344" xlink:href="#DejaVuSans-101"/>
      <use x="369.175781" xlink:href="#DejaVuSans-114"/>
      <use x="410.289062" xlink:href="#DejaVuSans-32"/>
      <use x="442.076172" xlink:href="#DejaVuSans-102"/>
      <use x="477.28125" xlink:href="#DejaVuSans-105"/>
      <use x="505.064453" xlink:href="#DejaVuSans-108"/>
      <use x="532.847656" xlink:href="#DejaVuSans-116"/>
      <use x="572.056641" xlink:href="#DejaVuSans-101"/>
      <use x="633.580078" xlink:href="#DejaVuSans-114"/>
      <use x="674.693359" xlink:href="#DejaVuSans-105"/>
      <use x="702.476562" xlink:href="#DejaVuSans-110"/>
      <use x="765.855469" xlink:href="#DejaVuSans-103"/>
      <use x="829.332031" xlink:href="#DejaVuSans-58"/>
      <use x="863.023438" xlink:href="#DejaVuSans-32"/>
      <use x="894.810547" xlink:href="#DejaVuSans-66"/>
      <use x="963.414062" xlink:href="#DejaVuSans-97"/>
      <use x="1024.693359" xlink:href="#DejaVuSans-115"/>
      <use x="1076.792969" xlink:href="#DejaVuSans-101"/>
      <use x="1138.316406" xlink:href="#DejaVuSans-32"/>
      <use x="1170.103516" xlink:href="#DejaVuSans-67"/>
      <use x="1239.927734" xlink:href="#DejaVuSans-111"/>
      <use x="1301.109375" xlink:href="#DejaVuSans-110"/>
      <use x="1364.488281" xlink:href="#DejaVuSans-116"/>
      <use x="1403.697266" xlink:href="#DejaVuSans-101"/>
      <use x="1465.220703" xlink:href="#DejaVuSans-110"/>
      <use x="1528.599609" xlink:href="#DejaVuSans-116"/>
      <use x="1567.808594" xlink:href="#DejaVuSans-32"/>
      <use x="1599.595703" xlink:href="#DejaVuSans-80"/>
      <use x="1659.851562" xlink:href="#DejaVuSans-101"/>
      <use x="1721.375" xlink:href="#DejaVuSans-114"/>
      <use x="1762.457031" xlink:href="#DejaVuSans-99"/>
      <use x="1817.4375" xlink:href="#DejaVuSans-101"/>
      <use x="1878.960938" xlink:href="#DejaVuSans-110"/>
      <use x="1942.339844" xlink:href="#DejaVuSans-116"/>
     </g>
    </g>
   </g>
   <g id="line2d_7">
    <path clip-path="url(#pc863197a52)" d="M 76.613125 353.2239 
L 82.471514 352.923157 
L 88.329904 353.2239 
L 574.576212 353.215625 
L 580.434602 353.073157 
L 586.292991 353.2239 
L 750.32789 353.20377 
L 756.186279 353.053536 
L 762.044669 353.202462 
L 797.195004 353.2239 
L 867.495675 353.2239 
L 873.354065 353.104942 
L 879.212454 353.2239 
L 949.513125 353.2239 
L 949.513125 353.2239 
" style="fill:none;stroke:#7cb5ec;stroke-linecap:square;"/>
   </g>
   <g id="line2d_8">
    <path clip-path="url(#pc863197a52)" d="M 76.613125 353.2239 
L 82.471514 352.919417 
L 88.329904 353.2239 
L 574.576212 353.215155 
L 580.434602 353.086699 
L 586.292991 353.2239 
L 750.32789 353.215695 
L 756.186279 353.025592 
L 762.044669 353.193505 
L 785.478226 353.2239 
L 832.34534 353.217611 
L 838.203729 353.106922 
L 844.062118 353.2239 
L 885.070843 353.2239 
L 949.513125 353.2239 
L 949.513125 353.2239 
" style="fill:none;stroke:#434348;stroke-linecap:square;"/>
   </g>
   <g id="line2d_9">
    <path clip-path="url(#pc863197a52)" d="M 76.613125 353.2239 
L 82.471514 352.927666 
L 88.329904 353.2239 
L 574.576212 353.218919 
L 580.434602 353.090877 
L 586.292991 353.2239 
L 750.32789 353.214235 
L 756.186279 353.021776 
L 767.903058 353.220389 
L 832.34534 353.2239 
L 838.203729 353.111297 
L 844.062118 353.2239 
L 879.212454 353.2239 
L 949.513125 353.2239 
L 949.513125 353.2239 
" style="fill:none;stroke:#90ed7d;stroke-linecap:square;"/>
   </g>
   <g id="line2d_10">
    <path clip-path="url(#pc863197a52)" d="M 76.613125 353.2239 
L 82.471514 352.837564 
L 88.329904 353.2239 
L 574.576212 353.211838 
L 580.434602 353.105018 
L 586.292991 353.2239 
L 750.32789 353.203244 
L 756.186279 353.071199 
L 767.903058 353.2239 
L 949.513125 353.2239 
L 949.513125 353.2239 
" style="fill:none;stroke:#f7a35c;stroke-linecap:square;"/>
   </g>
   <g id="line2d_11">
    <path clip-path="url(#pc863197a52)" d="M 76.613125 353.2239 
L 82.471514 352.811345 
L 88.329904 353.2239 
L 574.576212 353.216665 
L 580.434602 353.055122 
L 586.292991 353.2239 
L 750.32789 353.209297 
L 756.186279 353.042957 
L 762.044669 353.196627 
L 791.336615 353.2239 
L 832.34534 353.21199 
L 838.203729 353.112594 
L 844.062118 353.2239 
L 873.354065 353.122152 
L 885.070843 353.2239 
L 949.513125 353.2239 
L 949.513125 353.2239 
" style="fill:none;stroke:#8085e9;stroke-linecap:square;"/>
   </g>
   <g id="line2d_12">
    <path clip-path="url(#pc863197a52)" d="M 76.613125 353.2239 
L 82.471514 352.84268 
L 88.329904 353.2239 
L 574.576212 353.217611 
L 580.434602 353.096027 
L 586.292991 353.2239 
L 750.32789 353.203904 
L 756.186279 353.072571 
L 767.903058 353.2239 
L 949.513125 353.2239 
L 949.513125 353.2239 
" style="fill:none;stroke:#f15c80;stroke-linecap:square;"/>
   </g>
   <g id="line2d_13">
    <path clip-path="url(#pc863197a52)" d="M 76.613125 353.2239 
L 82.471514 352.898691 
L 88.329904 353.2239 
L 574.576212 353.216155 
L 580.434602 353.100757 
L 586.292991 353.2239 
L 750.32789 353.207705 
L 756.186279 353.062039 
L 767.903058 353.2239 
L 832.34534 353.21494 
L 838.203729 353.093511 
L 844.062118 353.214206 
L 949.513125 353.2239 
L 949.513125 353.2239 
" style="fill:none;stroke:#e4d354;stroke-linecap:square;"/>
   </g>
   <g id="line2d_14">
    <path clip-path="url(#pc863197a52)" d="M 76.613125 353.2239 
L 82.471514 353.00417 
L 88.329904 353.2239 
L 750.32789 353.213473 
L 756.186279 353.083626 
L 767.903058 353.2239 
L 832.34534 353.2239 
L 838.203729 353.062052 
L 844.062118 353.2239 
L 873.354065 353.042127 
L 879.212454 353.2239 
L 949.513125 353.2239 
L 949.513125 353.2239 
" style="fill:none;stroke:#2b908f;stroke-linecap:square;"/>
   </g>
   <g id="line2d_15">
    <path clip-path="url(#pc863197a52)" d="M 76.613125 353.2239 
L 82.471514 352.923971 
L 88.329904 353.2239 
L 574.576212 353.212261 
L 580.434602 353.065486 
L 586.292991 353.2239 
L 750.32789 353.214139 
L 756.186279 352.98213 
L 762.044669 353.197901 
L 791.336615 353.2239 
L 832.34534 353.216104 
L 838.203729 353.110754 
L 844.062118 353.2239 
L 879.212454 353.2239 
L 949.513125 353.2239 
L 949.513125 353.2239 
" style="fill:none;stroke:#f45b5b;stroke-linecap:square;"/>
   </g>
   <g id="line2d_16">
    <path clip-path="url(#pc863197a52)" d="M 76.613125 353.2239 
L 82.471514 352.924767 
L 88.329904 353.2239 
L 574.576212 353.220689 
L 580.434602 353.085431 
L 586.292991 353.2239 
L 750.32789 353.220673 
L 756.186279 353.034319 
L 767.903058 353.2239 
L 867.495675 353.2239 
L 873.354065 353.087192 
L 879.212454 353.2239 
L 949.513125 353.2239 
L 949.513125 353.2239 
" style="fill:none;stroke:#91e8e1;stroke-linecap:square;"/>
   </g>
   <g id="line2d_17">
    <path clip-path="url(#pc863197a52)" d="M 76.613125 353.2239 
L 82.471514 352.861879 
L 88.329904 353.2239 
L 574.576212 353.217044 
L 580.434602 353.074985 
L 586.292991 353.2239 
L 750.32789 353.200543 
L 756.186279 353.002734 
L 762.044669 353.187182 
L 785.478226 353.2239 
L 832.34534 353.2239 
L 838.203729 353.077954 
L 844.062118 353.2239 
L 914.362789 353.2239 
L 949.513125 353.2239 
L 949.513125 353.2239 
" style="fill:none;stroke:#7cb5ec;stroke-linecap:square;"/>
   </g>
   <g id="line2d_18">
    <path clip-path="url(#pc863197a52)" d="M 76.613125 353.2239 
L 82.471514 352.852337 
L 88.329904 353.2239 
L 574.576212 353.214093 
L 580.434602 353.055523 
L 586.292991 353.2239 
L 750.32789 353.203123 
L 756.186279 353.015226 
L 762.044669 353.184616 
L 785.478226 353.2239 
L 832.34534 353.211888 
L 838.203729 353.075595 
L 844.062118 353.2239 
L 855.778897 353.2239 
L 867.495675 353.216739 
L 873.354065 353.061392 
L 879.212454 353.2239 
L 949.513125 353.2239 
L 949.513125 353.2239 
" style="fill:none;stroke:#434348;stroke-linecap:square;"/>
   </g>
   <g id="line2d_19">
    <path clip-path="url(#pc863197a52)" d="M 76.613125 353.2239 
L 82.471514 352.916797 
L 88.329904 353.2239 
L 750.32789 353.2239 
L 756.186279 353.103248 
L 762.044669 353.100271 
L 767.903058 353.2239 
L 867.495675 353.2239 
L 873.354065 353.087679 
L 879.212454 353.2239 
L 949.513125 353.2239 
L 949.513125 353.2239 
" style="fill:none;stroke:#90ed7d;stroke-linecap:square;"/>
   </g>
   <g id="line2d_20">
    <path clip-path="url(#pc863197a52)" d="M 76.613125 353.2239 
L 82.471514 353.002164 
L 88.329904 353.2239 
L 574.576212 353.220513 
L 580.434602 353.089962 
L 586.292991 353.2239 
L 750.32789 353.21721 
L 756.186279 353.075561 
L 767.903058 353.2239 
L 832.34534 353.218542 
L 838.203729 353.107165 
L 844.062118 353.2239 
L 949.513125 353.2239 
L 949.513125 353.2239 
" style="fill:none;stroke:#f7a35c;stroke-linecap:square;"/>
   </g>
   <g id="line2d_21">
    <path clip-path="url(#pc863197a52)" d="M 76.613125 353.2239 
L 82.471514 352.987263 
L 88.329904 353.2239 
L 574.576212 353.222158 
L 580.434602 353.09991 
L 586.292991 353.2239 
L 750.32789 353.2239 
L 756.186279 353.044991 
L 762.044669 353.1964 
L 803.053393 353.2239 
L 832.34534 353.2239 
L 838.203729 353.070994 
L 844.062118 353.2239 
L 861.637286 353.2239 
L 867.495675 353.2239 
L 873.354065 353.078579 
L 879.212454 353.2239 
L 949.513125 353.2239 
L 949.513125 353.2239 
" style="fill:none;stroke:#8085e9;stroke-linecap:square;"/>
   </g>
   <g id="line2d_22">
    <path clip-path="url(#pc863197a52)" d="M 76.613125 353.2239 
L 82.471514 352.680835 
L 88.329904 353.2239 
L 949.513125 353.2239 
L 949.513125 353.2239 
" style="fill:none;stroke:#f15c80;stroke-linecap:square;"/>
   </g>
   <g id="line2d_23">
    <path clip-path="url(#pc863197a52)" d="M 76.613125 353.2239 
L 82.471514 352.823035 
L 88.329904 353.2239 
L 574.576212 353.218545 
L 580.434602 353.068108 
L 586.292991 353.2239 
L 750.32789 353.211766 
L 756.186279 353.039367 
L 767.903058 353.215992 
L 832.34534 353.2239 
L 838.203729 353.109711 
L 844.062118 353.2239 
L 879.212454 353.2239 
L 949.513125 353.2239 
L 949.513125 353.2239 
" style="fill:none;stroke:#e4d354;stroke-linecap:square;"/>
   </g>
   <g id="line2d_24">
    <path clip-path="url(#pc863197a52)" d="M 76.613125 353.2239 
L 82.471514 352.960565 
L 88.329904 353.2239 
L 574.576212 353.215393 
L 580.434602 353.109999 
L 586.292991 353.2239 
L 750.32789 353.217039 
L 756.186279 353.078756 
L 767.903058 353.216357 
L 832.34534 353.212884 
L 838.203729 353.143965 
L 849.920508 353.217753 
L 949.513125 353.2239 
L 949.513125 353.2239 
" style="fill:none;stroke:#2b908f;stroke-linecap:square;"/>
   </g>
   <g id="line2d_25">
    <path clip-path="url(#pc863197a52)" d="M 76.613125 353.2239 
L 82.471514 353.038014 
L 88.329904 353.2239 
L 574.576212 353.214577 
L 580.434602 353.100072 
L 586.292991 353.2239 
L 750.32789 353.211821 
L 756.186279 353.079375 
L 767.903058 353.210296 
L 820.628561 353.2239 
L 867.495675 353.18173 
L 873.354065 353.091504 
L 879.212454 353.2239 
L 949.513125 353.2239 
L 949.513125 353.2239 
" style="fill:none;stroke:#f45b5b;stroke-linecap:square;"/>
   </g>
   <g id="line2d_26">
    <path clip-path="url(#pc863197a52)" d="M 76.613125 353.2239 
L 82.471514 352.913219 
L 88.329904 353.2239 
L 574.576212 353.220813 
L 580.434602 353.098613 
L 586.292991 353.2239 
L 750.32789 353.217315 
L 756.186279 353.033109 
L 762.044669 353.188642 
L 785.478226 353.2239 
L 832.34534 353.212979 
L 838.203729 353.087686 
L 844.062118 353.2239 
L 873.354065 353.03686 
L 879.212454 353.2239 
L 949.513125 353.2239 
L 949.513125 353.2239 
" style="fill:none;stroke:#91e8e1;stroke-linecap:square;"/>
   </g>
   <g id="line2d_27">
    <path clip-path="url(#pc863197a52)" d="M 76.613125 353.2239 
L 82.471514 353.005565 
L 88.329904 353.2239 
L 750.32789 353.213947 
L 756.186279 353.095006 
L 767.903058 353.2239 
L 949.513125 353.2239 
L 949.513125 353.2239 
" style="fill:none;stroke:#7cb5ec;stroke-linecap:square;"/>
   </g>
   <g id="line2d_28">
    <path clip-path="url(#pc863197a52)" d="M 76.613125 353.2239 
L 82.471514 352.897849 
L 88.329904 353.2239 
L 574.576212 353.214779 
L 580.434602 353.062274 
L 586.292991 353.2239 
L 750.32789 353.21125 
L 756.186279 352.980967 
L 762.044669 353.192677 
L 791.336615 353.2239 
L 832.34534 353.2239 
L 838.203729 353.098701 
L 844.062118 353.2239 
L 861.637286 353.216388 
L 867.495675 353.2239 
L 873.354065 353.079475 
L 879.212454 353.2239 
L 949.513125 353.2239 
L 949.513125 353.2239 
" style="fill:none;stroke:#434348;stroke-linecap:square;"/>
   </g>
   <g id="line2d_29">
    <path clip-path="url(#pc863197a52)" d="M 76.613125 353.2239 
L 82.471514 352.901003 
L 88.329904 353.2239 
L 574.576212 353.220162 
L 580.434602 353.07445 
L 586.292991 353.2239 
L 750.32789 353.220426 
L 756.186279 353.027435 
L 767.903058 353.2239 
L 949.513125 353.2239 
L 949.513125 353.2239 
" style="fill:none;stroke:#90ed7d;stroke-linecap:square;"/>
   </g>
   <g id="line2d_30">
    <path clip-path="url(#pc863197a52)" d="M 76.613125 353.2239 
L 82.471514 352.882982 
L 88.329904 353.2239 
L 574.576212 353.213431 
L 580.434602 353.063184 
L 586.292991 353.2239 
L 750.32789 353.217022 
L 756.186279 353.069338 
L 767.903058 353.216562 
L 832.34534 353.209702 
L 838.203729 353.141473 
L 849.920508 353.203544 
L 867.495675 353.207452 
L 873.354065 353.077612 
L 879.212454 353.2239 
L 949.513125 353.2239 
L 949.513125 353.2239 
" style="fill:none;stroke:#f7a35c;stroke-linecap:square;"/>
   </g>
   <g id="line2d_31">
    <path clip-path="url(#pc863197a52)" d="M 76.613125 353.2239 
L 82.471514 352.942028 
L 88.329904 353.2239 
L 574.576212 353.206776 
L 580.434602 353.109166 
L 586.292991 353.2239 
L 750.32789 353.216667 
L 756.186279 353.104362 
L 767.903058 353.2239 
L 949.513125 353.2239 
L 949.513125 353.2239 
" style="fill:none;stroke:#8085e9;stroke-linecap:square;"/>
   </g>
   <g id="line2d_32">
    <path clip-path="url(#pc863197a52)" d="M 76.613125 353.2239 
L 82.471514 353.018531 
L 88.329904 353.2239 
L 574.576212 353.217712 
L 580.434602 353.095004 
L 586.292991 353.2239 
L 867.495675 353.196995 
L 873.354065 353.098001 
L 879.212454 353.2239 
L 949.513125 353.2239 
L 949.513125 353.2239 
" style="fill:none;stroke:#f15c80;stroke-linecap:square;"/>
   </g>
   <g id="line2d_33">
    <path clip-path="url(#pc863197a52)" d="M 76.613125 353.2239 
L 82.471514 352.802612 
L 88.329904 353.2239 
L 750.32789 353.20253 
L 756.186279 353.010014 
L 762.044669 353.200977 
L 808.911783 353.2239 
L 949.513125 353.2239 
L 949.513125 353.2239 
" style="fill:none;stroke:#e4d354;stroke-linecap:square;"/>
   </g>
   <g id="line2d_34">
    <path clip-path="url(#pc863197a52)" d="M 76.613125 353.2239 
L 82.471514 352.905166 
L 88.329904 353.2239 
L 750.32789 353.214427 
L 756.186279 353.086685 
L 767.903058 353.2239 
L 949.513125 353.2239 
L 949.513125 353.2239 
" style="fill:none;stroke:#2b908f;stroke-linecap:square;"/>
   </g>
   <g id="line2d_35">
    <path clip-path="url(#pc863197a52)" d="M 76.613125 353.2239 
L 82.471514 352.779698 
L 88.329904 353.2239 
L 574.576212 353.214726 
L 580.434602 353.075092 
L 586.292991 353.2239 
L 750.32789 353.215043 
L 756.186279 353.082657 
L 767.903058 353.2239 
L 832.34534 353.2239 
L 838.203729 353.105842 
L 844.062118 353.2239 
L 867.495675 353.215736 
L 873.354065 353.054986 
L 879.212454 353.2239 
L 949.513125 353.2239 
L 949.513125 353.2239 
" style="fill:none;stroke:#f45b5b;stroke-linecap:square;"/>
   </g>
   <g id="line2d_36">
    <path clip-path="url(#pc863197a52)" d="M 76.613125 353.2239 
L 82.471514 352.918098 
L 88.329904 353.2239 
L 574.576212 353.219599 
L 580.434602 353.103814 
L 586.292991 353.2239 
L 750.32789 353.210456 
L 756.186279 353.029548 
L 767.903058 353.2239 
L 949.513125 353.2239 
L 949.513125 353.2239 
" style="fill:none;stroke:#91e8e1;stroke-linecap:square;"/>
   </g>
   <g id="line2d_37">
    <path clip-path="url(#pc863197a52)" d="M 76.613125 353.2239 
L 82.471514 352.925284 
L 88.329904 353.2239 
L 574.576212 353.216324 
L 580.434602 353.065838 
L 586.292991 353.2239 
L 750.32789 353.215245 
L 756.186279 353.033753 
L 762.044669 353.199418 
L 803.053393 353.2239 
L 832.34534 353.2239 
L 838.203729 353.103181 
L 844.062118 353.2239 
L 873.354065 353.120697 
L 885.070843 353.2239 
L 949.513125 353.2239 
L 949.513125 353.2239 
" style="fill:none;stroke:#7cb5ec;stroke-linecap:square;"/>
   </g>
   <g id="line2d_38">
    <path clip-path="url(#pc863197a52)" d="M 76.613125 353.2239 
L 82.471514 353.004729 
L 88.329904 353.2239 
L 574.576212 353.219803 
L 580.434602 353.075822 
L 586.292991 353.2239 
L 750.32789 353.209613 
L 756.186279 352.982061 
L 762.044669 353.188078 
L 785.478226 353.2239 
L 949.513125 353.2239 
L 949.513125 353.2239 
" style="fill:none;stroke:#434348;stroke-linecap:square;"/>
   </g>
   <g id="line2d_39">
    <path clip-path="url(#pc863197a52)" d="M 76.613125 353.2239 
L 82.471514 352.871451 
L 88.329904 353.2239 
L 574.576212 353.22093 
L 580.434602 353.036015 
L 586.292991 353.2239 
L 750.32789 353.213132 
L 756.186279 353.057462 
L 767.903058 353.2239 
L 832.34534 353.2239 
L 838.203729 353.101057 
L 844.062118 353.2239 
L 949.513125 353.2239 
L 949.513125 353.2239 
" style="fill:none;stroke:#90ed7d;stroke-linecap:square;"/>
   </g>
   <g id="line2d_40">
    <path clip-path="url(#pc863197a52)" d="M 76.613125 353.2239 
L 82.471514 352.906212 
L 88.329904 353.2239 
L 574.576212 353.22 
L 580.434602 353.094671 
L 586.292991 353.2239 
L 750.32789 353.21441 
L 756.186279 353.104284 
L 767.903058 353.219032 
L 832.34534 353.218504 
L 838.203729 353.142099 
L 849.920508 353.2239 
L 949.513125 353.2239 
L 949.513125 353.2239 
" style="fill:none;stroke:#f7a35c;stroke-linecap:square;"/>
   </g>
   <g id="line2d_41">
    <path clip-path="url(#pc863197a52)" d="M 76.613125 353.2239 
L 82.471514 352.881627 
L 88.329904 353.2239 
L 574.576212 353.21151 
L 580.434602 353.071514 
L 586.292991 353.2239 
L 750.32789 353.208855 
L 756.186279 353.060793 
L 767.903058 353.2239 
L 832.34534 353.215327 
L 838.203729 353.093952 
L 844.062118 353.219523 
L 867.495675 353.21018 
L 873.354065 353.085122 
L 879.212454 353.2239 
L 949.513125 353.2239 
L 949.513125 353.2239 
" style="fill:none;stroke:#8085e9;stroke-linecap:square;"/>
   </g>
   <g id="line2d_42">
    <path clip-path="url(#pc863197a52)" d="M 76.613125 353.2239 
L 82.471514 352.900523 
L 88.329904 353.2239 
L 574.576212 353.221277 
L 580.434602 353.010656 
L 586.292991 353.2239 
L 750.32789 353.217663 
L 756.186279 352.985137 
L 762.044669 353.17008 
L 779.619836 353.2239 
L 832.34534 353.2204 
L 838.203729 353.050819 
L 844.062118 353.220335 
L 867.495675 353.220195 
L 873.354065 353.010557 
L 879.212454 353.2239 
L 949.513125 353.2239 
L 949.513125 353.2239 
" style="fill:none;stroke:#f15c80;stroke-linecap:square;"/>
   </g>
   <g id="line2d_43">
    <path clip-path="url(#pc863197a52)" d="M 76.613125 353.2239 
L 82.471514 352.898703 
L 88.329904 353.2239 
L 574.576212 353.214167 
L 580.434602 353.077318 
L 586.292991 353.2239 
L 750.32789 353.206449 
L 756.186279 353.048064 
L 773.761447 353.2239 
L 832.34534 353.2239 
L 838.203729 353.085502 
L 844.062118 353.2239 
L 937.796346 353.2239 
L 949.513125 353.2239 
L 949.513125 353.2239 
" style="fill:none;stroke:#e4d354;stroke-linecap:square;"/>
   </g>
   <g id="line2d_44">
    <path clip-path="url(#pc863197a52)" d="M 76.613125 353.2239 
L 82.471514 352.931415 
L 88.329904 353.2239 
L 574.576212 353.218663 
L 580.434602 353.088252 
L 586.292991 353.2239 
L 750.32789 353.222216 
L 756.186279 353.05553 
L 762.044669 353.20157 
L 791.336615 353.2239 
L 867.495675 353.217677 
L 873.354065 353.093812 
L 879.212454 353.2239 
L 949.513125 353.2239 
L 949.513125 353.2239 
" style="fill:none;stroke:#2b908f;stroke-linecap:square;"/>
   </g>
   <g id="line2d_45">
    <path clip-path="url(#pc863197a52)" d="M 76.613125 353.2239 
L 82.471514 352.916323 
L 88.329904 353.2239 
L 574.576212 353.220278 
L 580.434602 353.092915 
L 586.292991 353.2239 
L 750.32789 353.219391 
L 756.186279 353.101031 
L 767.903058 353.2239 
L 867.495675 353.2239 
L 873.354065 353.094168 
L 879.212454 353.2239 
L 949.513125 353.2239 
L 949.513125 353.2239 
" style="fill:none;stroke:#f45b5b;stroke-linecap:square;"/>
   </g>
   <g id="line2d_46">
    <path clip-path="url(#pc863197a52)" d="M 76.613125 353.2239 
L 82.471514 352.858177 
L 88.329904 353.2239 
L 574.576212 353.217505 
L 580.434602 353.047292 
L 586.292991 353.2239 
L 750.32789 353.216138 
L 756.186279 353.004736 
L 762.044669 353.180495 
L 779.619836 353.2239 
L 832.34534 353.215122 
L 838.203729 353.090946 
L 844.062118 353.219424 
L 867.495675 353.21458 
L 873.354065 353.054314 
L 879.212454 353.2239 
L 949.513125 353.2239 
L 949.513125 353.2239 
" style="fill:none;stroke:#91e8e1;stroke-linecap:square;"/>
   </g>
   <g id="line2d_47">
    <path clip-path="url(#pc863197a52)" d="M 76.613125 353.2239 
L 82.471514 352.861733 
L 88.329904 353.2239 
L 574.576212 353.221181 
L 580.434602 353.111793 
L 586.292991 353.2239 
L 750.32789 353.213363 
L 756.186279 353.099667 
L 767.903058 353.2239 
L 949.513125 353.2239 
L 949.513125 353.2239 
" style="fill:none;stroke:#7cb5ec;stroke-linecap:square;"/>
   </g>
   <g id="line2d_48">
    <path clip-path="url(#pc863197a52)" d="M 76.613125 353.2239 
L 82.471514 352.946965 
L 88.329904 353.2239 
L 574.576212 353.201965 
L 580.434602 353.040312 
L 586.292991 353.2239 
L 750.32789 353.214865 
L 756.186279 353.073481 
L 767.903058 353.2239 
L 832.34534 353.213541 
L 838.203729 353.108694 
L 844.062118 353.2239 
L 949.513125 353.2239 
L 949.513125 353.2239 
" style="fill:none;stroke:#434348;stroke-linecap:square;"/>
   </g>
   <g id="line2d_49">
    <path clip-path="url(#pc863197a52)" d="M 76.613125 353.2239 
L 82.471514 352.910151 
L 88.329904 353.2239 
L 574.576212 353.220049 
L 580.434602 353.084692 
L 586.292991 353.2239 
L 750.32789 353.214596 
L 756.186279 353.06445 
L 767.903058 353.2239 
L 832.34534 353.218647 
L 838.203729 353.112524 
L 844.062118 353.2239 
L 949.513125 353.2239 
L 949.513125 353.2239 
" style="fill:none;stroke:#90ed7d;stroke-linecap:square;"/>
   </g>
   <g id="line2d_50">
    <path clip-path="url(#pc863197a52)" d="M 76.613125 353.2239 
L 82.471514 352.916 
L 88.329904 353.2239 
L 574.576212 353.217062 
L 580.434602 353.043141 
L 586.292991 353.2239 
L 750.32789 353.218465 
L 756.186279 353.056913 
L 767.903058 353.2239 
L 867.495675 353.21433 
L 873.354065 353.095111 
L 879.212454 353.2239 
L 949.513125 353.2239 
L 949.513125 353.2239 
" style="fill:none;stroke:#f7a35c;stroke-linecap:square;"/>
   </g>
   <g id="line2d_51">
    <path clip-path="url(#pc863197a52)" d="M 76.613125 353.2239 
L 82.471514 352.942914 
L 88.329904 353.2239 
L 574.576212 353.219923 
L 580.434602 353.052054 
L 586.292991 353.2239 
L 750.32789 353.214026 
L 756.186279 352.999738 
L 762.044669 353.208819 
L 808.911783 353.2239 
L 832.34534 353.21824 
L 838.203729 353.052243 
L 844.062118 353.2239 
L 867.495675 353.217844 
L 873.354065 353.058398 
L 879.212454 353.2239 
L 949.513125 353.2239 
L 949.513125 353.2239 
" style="fill:none;stroke:#8085e9;stroke-linecap:square;"/>
   </g>
   <g id="line2d_52">
    <path clip-path="url(#pc863197a52)" d="M 76.613125 353.2239 
L 82.471514 352.863148 
L 88.329904 353.2239 
L 574.576212 353.2239 
L 580.434602 353.074075 
L 586.292991 353.2239 
L 750.32789 353.2239 
L 756.186279 353.017944 
L 767.903058 353.2239 
L 832.34534 353.2239 
L 838.203729 353.097323 
L 844.062118 353.2239 
L 867.495675 353.2239 
L 873.354065 353.084842 
L 879.212454 353.2239 
L 949.513125 353.2239 
L 949.513125 353.2239 
" style="fill:none;stroke:#f15c80;stroke-linecap:square;"/>
   </g>
   <g id="line2d_53">
    <path clip-path="url(#pc863197a52)" d="M 76.613125 353.2239 
L 82.471514 352.864608 
L 88.329904 353.2239 
L 574.576212 353.2239 
L 580.434602 353.08211 
L 586.292991 353.2239 
L 750.32789 353.210941 
L 756.186279 353.101627 
L 767.903058 353.2239 
L 832.34534 353.2239 
L 838.203729 353.099882 
L 844.062118 353.2239 
L 867.495675 353.2239 
L 873.354065 353.061026 
L 879.212454 353.2239 
L 949.513125 353.2239 
L 949.513125 353.2239 
" style="fill:none;stroke:#e4d354;stroke-linecap:square;"/>
   </g>
   <g id="line2d_54">
    <path clip-path="url(#pc863197a52)" d="M 76.613125 353.2239 
L 82.471514 352.92044 
L 88.329904 353.2239 
L 574.576212 353.221474 
L 580.434602 353.06055 
L 586.292991 353.2239 
L 750.32789 353.214725 
L 756.186279 353.06022 
L 762.044669 353.198953 
L 791.336615 353.2239 
L 867.495675 353.216324 
L 873.354065 353.085834 
L 879.212454 353.220016 
L 949.513125 353.2239 
L 949.513125 353.2239 
" style="fill:none;stroke:#2b908f;stroke-linecap:square;"/>
   </g>
   <g id="line2d_55">
    <path clip-path="url(#pc863197a52)" d="M 76.613125 353.2239 
L 82.471514 352.935094 
L 88.329904 353.2239 
L 750.32789 353.217984 
L 756.186279 353.109929 
L 767.903058 353.2239 
L 949.513125 353.2239 
L 949.513125 353.2239 
" style="fill:none;stroke:#f45b5b;stroke-linecap:square;"/>
   </g>
   <g id="line2d_56">
    <path clip-path="url(#pc863197a52)" d="M 76.613125 353.2239 
L 82.471514 352.938313 
L 88.329904 353.2239 
L 574.576212 353.2239 
L 580.434602 353.044715 
L 586.292991 353.2239 
L 750.32789 353.2239 
L 756.186279 353.056961 
L 762.044669 353.200922 
L 791.336615 353.2239 
L 832.34534 353.219584 
L 838.203729 353.093003 
L 844.062118 353.2239 
L 867.495675 353.214665 
L 873.354065 353.102413 
L 879.212454 353.2239 
L 949.513125 353.2239 
L 949.513125 353.2239 
" style="fill:none;stroke:#91e8e1;stroke-linecap:square;"/>
   </g>
   <g id="line2d_57">
    <path clip-path="url(#pc863197a52)" d="M 76.613125 353.2239 
L 82.471514 352.989993 
L 88.329904 353.2239 
L 574.576212 353.2239 
L 580.434602 353.081275 
L 586.292991 353.2239 
L 750.32789 353.2239 
L 756.186279 353.075481 
L 767.903058 353.218508 
L 832.34534 353.2239 
L 838.203729 353.115299 
L 849.920508 353.2239 
L 949.513125 353.2239 
L 949.513125 353.2239 
" style="fill:none;stroke:#7cb5ec;stroke-linecap:square;"/>
   </g>
   <g id="line2d_58">
    <path clip-path="url(#pc863197a52)" d="M 76.613125 353.2239 
L 82.471514 352.898829 
L 88.329904 353.2239 
L 574.576212 353.220848 
L 580.434602 353.015539 
L 586.292991 353.2239 
L 750.32789 353.216543 
L 756.186279 353.034807 
L 767.903058 353.2239 
L 832.34534 353.2239 
L 838.203729 353.098347 
L 844.062118 353.2239 
L 890.929232 353.2239 
L 949.513125 353.2239 
L 949.513125 353.2239 
" style="fill:none;stroke:#434348;stroke-linecap:square;"/>
   </g>
   <g id="line2d_59">
    <path clip-path="url(#pc863197a52)" d="M 76.613125 353.2239 
L 82.471514 352.844626 
L 88.329904 353.2239 
L 574.576212 353.218747 
L 580.434602 353.063397 
L 586.292991 353.2239 
L 750.32789 353.219674 
L 756.186279 353.049144 
L 762.044669 353.191656 
L 785.478226 353.2239 
L 832.34534 353.219108 
L 838.203729 353.095665 
L 844.062118 353.2239 
L 908.5044 353.2239 
L 949.513125 353.2239 
L 949.513125 353.2239 
" style="fill:none;stroke:#90ed7d;stroke-linecap:square;"/>
   </g>
   <g id="line2d_60">
    <path clip-path="url(#pc863197a52)" d="M 76.613125 353.2239 
L 82.471514 352.911247 
L 88.329904 353.2239 
L 574.576212 353.2239 
L 580.434602 353.064728 
L 586.292991 353.2239 
L 750.32789 353.2239 
L 756.186279 353.033541 
L 762.044669 353.184696 
L 779.619836 353.2239 
L 832.34534 353.2239 
L 838.203729 353.103367 
L 844.062118 353.2239 
L 867.495675 353.2239 
L 873.354065 353.066173 
L 879.212454 353.2239 
L 949.513125 353.2239 
L 949.513125 353.2239 
" style="fill:none;stroke:#f7a35c;stroke-linecap:square;"/>
   </g>
   <g id="line2d_61">
    <path clip-path="url(#pc863197a52)" d="M 76.613125 353.2239 
L 82.471514 352.938268 
L 88.329904 353.2239 
L 574.576212 353.219948 
L 580.434602 352.981567 
L 586.292991 353.2239 
L 750.32789 353.216524 
L 756.186279 352.956009 
L 762.044669 353.17885 
L 779.619836 353.2239 
L 832.34534 353.221103 
L 838.203729 353.057232 
L 844.062118 353.2239 
L 867.495675 353.214978 
L 873.354065 353.007489 
L 879.212454 353.2239 
L 949.513125 353.2239 
L 949.513125 353.2239 
" style="fill:none;stroke:#8085e9;stroke-linecap:square;"/>
   </g>
   <g id="line2d_62">
    <path clip-path="url(#pc863197a52)" d="M 76.613125 353.2239 
L 82.471514 352.967276 
L 88.329904 353.2239 
L 574.576212 353.2239 
L 580.434602 353.078816 
L 586.292991 353.2239 
L 750.32789 353.2239 
L 756.186279 353.072484 
L 767.903058 353.2239 
L 867.495675 353.2239 
L 873.354065 353.101231 
L 879.212454 353.2239 
L 949.513125 353.2239 
L 949.513125 353.2239 
" style="fill:none;stroke:#f15c80;stroke-linecap:square;"/>
   </g>
   <g id="line2d_63">
    <path clip-path="url(#pc863197a52)" d="M 76.613125 353.2239 
L 82.471514 352.91921 
L 88.329904 353.2239 
L 574.576212 353.221008 
L 580.434602 353.069947 
L 586.292991 353.2239 
L 750.32789 353.216845 
L 756.186279 353.053175 
L 767.903058 353.2239 
L 867.495675 353.215375 
L 873.354065 353.077373 
L 879.212454 353.2239 
L 949.513125 353.2239 
L 949.513125 353.2239 
" style="fill:none;stroke:#e4d354;stroke-linecap:square;"/>
   </g>
   <g id="line2d_64">
    <path clip-path="url(#pc863197a52)" d="M 76.613125 353.2239 
L 82.471514 352.97376 
L 88.329904 353.2239 
L 574.576212 353.2239 
L 580.434602 353.086452 
L 586.292991 353.2239 
L 750.32789 353.213846 
L 756.186279 353.081836 
L 767.903058 353.2239 
L 867.495675 353.21153 
L 873.354065 353.061251 
L 879.212454 353.2239 
L 949.513125 353.2239 
L 949.513125 353.2239 
" style="fill:none;stroke:#2b908f;stroke-linecap:square;"/>
   </g>
   <g id="line2d_65">
    <path clip-path="url(#pc863197a52)" d="M 76.613125 353.2239 
L 82.471514 352.884442 
L 88.329904 353.2239 
L 574.576212 353.2239 
L 580.434602 353.024845 
L 586.292991 353.2239 
L 750.32789 353.215157 
L 756.186279 353.025567 
L 767.903058 353.2239 
L 832.34534 353.214021 
L 838.203729 353.099227 
L 844.062118 353.2239 
L 867.495675 353.21866 
L 873.354065 353.03859 
L 879.212454 353.2239 
L 949.513125 353.2239 
L 949.513125 353.2239 
" style="fill:none;stroke:#f45b5b;stroke-linecap:square;"/>
   </g>
   <g id="line2d_66">
    <path clip-path="url(#pc863197a52)" d="M 76.613125 353.2239 
L 82.471514 352.930747 
L 88.329904 353.2239 
L 574.576212 353.217979 
L 580.434602 353.045475 
L 586.292991 353.2239 
L 750.32789 353.205682 
L 756.186279 353.010675 
L 762.044669 353.171961 
L 779.619836 353.2239 
L 867.495675 353.214975 
L 873.354065 353.083944 
L 879.212454 353.2239 
L 949.513125 353.2239 
L 949.513125 353.2239 
" style="fill:none;stroke:#91e8e1;stroke-linecap:square;"/>
   </g>
   <g id="line2d_67">
    <path clip-path="url(#pc863197a52)" d="M 76.613125 353.2239 
L 82.471514 352.941786 
L 88.329904 353.2239 
L 574.576212 353.2239 
L 580.434602 353.049054 
L 586.292991 353.2239 
L 750.32789 353.217934 
L 756.186279 353.037236 
L 762.044669 353.205668 
L 803.053393 353.2239 
L 867.495675 353.2239 
L 873.354065 353.112184 
L 879.212454 353.2239 
L 949.513125 353.2239 
L 949.513125 353.2239 
" style="fill:none;stroke:#7cb5ec;stroke-linecap:square;"/>
   </g>
   <g id="line2d_68">
    <path clip-path="url(#pc863197a52)" d="M 76.613125 353.2239 
L 82.471514 352.911581 
L 88.329904 353.2239 
L 574.576212 353.218752 
L 580.434602 353.050707 
L 586.292991 353.2239 
L 750.32789 353.211366 
L 756.186279 353.050099 
L 767.903058 353.2239 
L 832.34534 353.220348 
L 838.203729 353.098348 
L 844.062118 353.2239 
L 867.495675 353.220124 
L 873.354065 353.071179 
L 879.212454 353.2239 
L 949.513125 353.2239 
L 949.513125 353.2239 
" style="fill:none;stroke:#434348;stroke-linecap:square;"/>
   </g>
   <g id="line2d_69">
    <path clip-path="url(#pc863197a52)" d="M 76.613125 353.2239 
L 82.471514 352.896011 
L 88.329904 353.2239 
L 574.576212 353.2239 
L 580.434602 353.028728 
L 586.292991 353.2239 
L 750.32789 353.2239 
L 756.186279 353.007597 
L 762.044669 353.188959 
L 785.478226 353.2239 
L 832.34534 353.2239 
L 838.203729 353.093877 
L 844.062118 353.2239 
L 873.354065 353.052213 
L 879.212454 353.2239 
L 949.513125 353.2239 
L 949.513125 353.2239 
" style="fill:none;stroke:#90ed7d;stroke-linecap:square;"/>
   </g>
   <g id="line2d_70">
    <path clip-path="url(#pc863197a52)" d="M 76.613125 353.2239 
L 82.471514 352.944039 
L 88.329904 353.2239 
L 574.576212 353.2239 
L 580.434602 353.053142 
L 586.292991 353.2239 
L 750.32789 353.219609 
L 756.186279 353.037616 
L 762.044669 353.188911 
L 785.478226 353.2239 
L 832.34534 353.218949 
L 838.203729 353.098706 
L 844.062118 353.2239 
L 885.070843 353.2239 
L 949.513125 353.2239 
L 949.513125 353.2239 
" style="fill:none;stroke:#f7a35c;stroke-linecap:square;"/>
   </g>
   <g id="line2d_71">
    <path clip-path="url(#pc863197a52)" d="M 76.613125 353.2239 
L 82.471514 352.893362 
L 88.329904 353.2239 
L 574.576212 353.219286 
L 580.434602 353.045407 
L 586.292991 353.2239 
L 750.32789 353.209712 
L 756.186279 353.022168 
L 762.044669 353.200815 
L 791.336615 353.2239 
L 832.34534 353.219089 
L 838.203729 353.091179 
L 844.062118 353.2239 
L 867.495675 353.217108 
L 873.354065 353.062658 
L 879.212454 353.2239 
L 949.513125 353.2239 
L 949.513125 353.2239 
" style="fill:none;stroke:#8085e9;stroke-linecap:square;"/>
   </g>
   <g id="line2d_72">
    <path clip-path="url(#pc863197a52)" d="M 76.613125 353.2239 
L 82.471514 352.897679 
L 88.329904 353.2239 
L 574.576212 353.220263 
L 580.434602 353.077846 
L 586.292991 353.2239 
L 750.32789 353.215176 
L 756.186279 353.087595 
L 767.903058 353.2239 
L 867.495675 353.218656 
L 873.354065 353.112555 
L 879.212454 353.2239 
L 949.513125 353.2239 
L 949.513125 353.2239 
" style="fill:none;stroke:#f15c80;stroke-linecap:square;"/>
   </g>
   <g id="line2d_73">
    <path clip-path="url(#pc863197a52)" d="M 76.613125 353.2239 
L 82.471514 352.862154 
L 88.329904 353.2239 
L 574.576212 353.221889 
L 580.434602 352.994113 
L 586.292991 353.2239 
L 750.32789 353.210352 
L 756.186279 352.983351 
L 762.044669 353.180561 
L 779.619836 353.2239 
L 832.34534 353.221459 
L 838.203729 353.05935 
L 844.062118 353.2239 
L 867.495675 353.218824 
L 873.354065 353.032235 
L 879.212454 353.2239 
L 949.513125 353.2239 
L 949.513125 353.2239 
" style="fill:none;stroke:#e4d354;stroke-linecap:square;"/>
   </g>
   <g id="line2d_74">
    <path clip-path="url(#pc863197a52)" d="M 76.613125 353.2239 
L 82.471514 352.955588 
L 88.329904 353.2239 
L 574.576212 353.218235 
L 580.434602 353.073141 
L 586.292991 353.2239 
L 750.32789 353.206496 
L 756.186279 353.058812 
L 762.044669 353.199089 
L 797.195004 353.2239 
L 867.495675 353.215358 
L 873.354065 353.094211 
L 879.212454 353.2239 
L 949.513125 353.2239 
L 949.513125 353.2239 
" style="fill:none;stroke:#2b908f;stroke-linecap:square;"/>
   </g>
   <g id="line2d_75">
    <path clip-path="url(#pc863197a52)" d="M 76.613125 353.2239 
L 82.471514 352.9154 
L 88.329904 353.2239 
L 574.576212 353.218987 
L 580.434602 353.065932 
L 586.292991 353.2239 
L 750.32789 353.214797 
L 756.186279 353.067806 
L 767.903058 353.220785 
L 832.34534 353.2239 
L 838.203729 353.12626 
L 844.062118 353.2239 
L 885.070843 353.2239 
L 949.513125 353.2239 
L 949.513125 353.2239 
" style="fill:none;stroke:#f45b5b;stroke-linecap:square;"/>
   </g>
   <g id="line2d_76">
    <path clip-path="url(#pc863197a52)" d="M 76.613125 353.2239 
L 82.471514 352.951955 
L 88.329904 353.2239 
L 574.576212 353.222104 
L 580.434602 353.052503 
L 586.292991 353.2239 
L 750.32789 353.204135 
L 756.186279 353.031265 
L 767.903058 353.2239 
L 867.495675 353.22128 
L 873.354065 353.083641 
L 879.212454 353.2239 
L 949.513125 353.2239 
L 949.513125 353.2239 
" style="fill:none;stroke:#91e8e1;stroke-linecap:square;"/>
   </g>
   <g id="line2d_77">
    <path clip-path="url(#pc863197a52)" d="M 76.613125 353.2239 
L 82.471514 352.894598 
L 88.329904 353.2239 
L 574.576212 353.220816 
L 580.434602 353.04751 
L 586.292991 353.2239 
L 750.32789 353.213001 
L 756.186279 352.993348 
L 762.044669 353.164913 
L 773.761447 353.2239 
L 832.34534 353.219839 
L 838.203729 353.096868 
L 844.062118 353.2239 
L 867.495675 353.2239 
L 873.354065 353.04171 
L 879.212454 353.2239 
L 949.513125 353.2239 
L 949.513125 353.2239 
" style="fill:none;stroke:#7cb5ec;stroke-linecap:square;"/>
   </g>
   <g id="line2d_78">
    <path clip-path="url(#pc863197a52)" d="M 76.613125 353.2239 
L 82.471514 352.979175 
L 88.329904 353.2239 
L 574.576212 353.219276 
L 580.434602 353.112188 
L 586.292991 353.2239 
L 750.32789 353.214675 
L 756.186279 353.102595 
L 767.903058 353.2239 
L 867.495675 353.219968 
L 873.354065 353.100318 
L 879.212454 353.2239 
L 949.513125 353.2239 
L 949.513125 353.2239 
" style="fill:none;stroke:#434348;stroke-linecap:square;"/>
   </g>
   <g id="line2d_79">
    <path clip-path="url(#pc863197a52)" d="M 76.613125 353.2239 
L 82.471514 352.996054 
L 88.329904 353.2239 
L 750.32789 353.220914 
L 756.186279 353.072983 
L 762.044669 353.211693 
L 814.770172 353.2239 
L 949.513125 353.2239 
L 949.513125 353.2239 
" style="fill:none;stroke:#90ed7d;stroke-linecap:square;"/>
   </g>
   <g id="line2d_80">
    <path clip-path="url(#pc863197a52)" d="M 76.613125 353.2239 
L 82.471514 352.922033 
L 88.329904 353.2239 
L 574.576212 353.222367 
L 580.434602 353.066753 
L 586.292991 353.2239 
L 750.32789 353.220023 
L 756.186279 353.053647 
L 762.044669 353.198214 
L 791.336615 353.2239 
L 867.495675 353.2239 
L 873.354065 353.096498 
L 879.212454 353.2239 
L 949.513125 353.2239 
L 949.513125 353.2239 
" style="fill:none;stroke:#f7a35c;stroke-linecap:square;"/>
   </g>
   <g id="line2d_81">
    <path clip-path="url(#pc863197a52)" d="M 76.613125 353.2239 
L 82.471514 352.975227 
L 88.329904 353.2239 
L 574.576212 353.213528 
L 580.434602 353.067566 
L 586.292991 353.2239 
L 750.32789 353.2239 
L 756.186279 353.104304 
L 767.903058 353.2239 
L 949.513125 353.2239 
L 949.513125 353.2239 
" style="fill:none;stroke:#8085e9;stroke-linecap:square;"/>
   </g>
   <g id="line2d_82">
    <path clip-path="url(#pc863197a52)" d="M 76.613125 353.2239 
L 82.471514 352.967727 
L 88.329904 353.2239 
L 574.576212 353.215119 
L 580.434602 353.088568 
L 586.292991 353.2239 
L 750.32789 353.205436 
L 756.186279 353.104573 
L 767.903058 353.2239 
L 832.34534 353.219629 
L 838.203729 353.102935 
L 844.062118 353.2239 
L 914.362789 353.2239 
L 949.513125 353.2239 
L 949.513125 353.2239 
" style="fill:none;stroke:#f15c80;stroke-linecap:square;"/>
   </g>
   <g id="line2d_83">
    <path clip-path="url(#pc863197a52)" d="M 76.613125 353.2239 
L 82.471514 352.899159 
L 88.329904 353.2239 
L 574.576212 353.215502 
L 580.434602 353.038385 
L 586.292991 353.2239 
L 750.32789 353.211853 
L 756.186279 353.027721 
L 762.044669 353.203526 
L 797.195004 353.2239 
L 832.34534 353.217183 
L 838.203729 353.092926 
L 844.062118 353.2239 
L 867.495675 353.216822 
L 873.354065 353.033409 
L 879.212454 353.2239 
L 949.513125 353.2239 
L 949.513125 353.2239 
" style="fill:none;stroke:#e4d354;stroke-linecap:square;"/>
   </g>
   <g id="line2d_84">
    <path clip-path="url(#pc863197a52)" d="M 76.613125 353.2239 
L 82.471514 352.833205 
L 88.329904 353.2239 
L 574.576212 353.220699 
L 580.434602 353.034277 
L 586.292991 353.2239 
L 750.32789 353.208508 
L 756.186279 353.037709 
L 762.044669 353.204348 
L 797.195004 353.2239 
L 832.34534 353.215207 
L 838.203729 353.070297 
L 844.062118 353.2239 
L 867.495675 353.219285 
L 873.354065 353.032649 
L 879.212454 353.2239 
L 949.513125 353.2239 
L 949.513125 353.2239 
" style="fill:none;stroke:#2b908f;stroke-linecap:square;"/>
   </g>
   <g id="line2d_85">
    <path clip-path="url(#pc863197a52)" d="M 76.613125 353.2239 
L 82.471514 352.935972 
L 88.329904 353.2239 
L 574.576212 353.21591 
L 580.434602 353.071377 
L 586.292991 353.2239 
L 750.32789 353.193749 
L 756.186279 353.071647 
L 767.903058 353.2239 
L 867.495675 353.211351 
L 873.354065 353.065013 
L 879.212454 353.2239 
L 949.513125 353.2239 
L 949.513125 353.2239 
" style="fill:none;stroke:#f45b5b;stroke-linecap:square;"/>
   </g>
   <g id="line2d_86">
    <path clip-path="url(#pc863197a52)" d="M 76.613125 353.2239 
L 82.471514 352.917971 
L 88.329904 353.2239 
L 574.576212 353.220775 
L 580.434602 353.066924 
L 586.292991 353.2239 
L 750.32789 353.216146 
L 756.186279 353.043892 
L 767.903058 353.2239 
L 832.34534 353.2239 
L 838.203729 353.097254 
L 844.062118 353.2239 
L 867.495675 353.2191 
L 873.354065 353.034329 
L 879.212454 353.2239 
L 949.513125 353.2239 
L 949.513125 353.2239 
" style="fill:none;stroke:#91e8e1;stroke-linecap:square;"/>
   </g>
   <g id="line2d_87">
    <path clip-path="url(#pc863197a52)" d="M 76.613125 353.2239 
L 82.471514 352.878393 
L 88.329904 353.2239 
L 574.576212 353.2239 
L 580.434602 353.086753 
L 586.292991 353.2239 
L 750.32789 353.2239 
L 756.186279 353.100213 
L 767.903058 353.2239 
L 832.34534 353.2239 
L 838.203729 353.094825 
L 844.062118 353.2239 
L 943.654736 353.2239 
L 949.513125 353.2239 
L 949.513125 353.2239 
" style="fill:none;stroke:#7cb5ec;stroke-linecap:square;"/>
   </g>
   <g id="line2d_88">
    <path clip-path="url(#pc863197a52)" d="M 76.613125 353.2239 
L 82.471514 352.949754 
L 88.329904 353.2239 
L 574.576212 353.2239 
L 580.434602 353.05458 
L 586.292991 353.2239 
L 750.32789 353.220039 
L 756.186279 353.048562 
L 767.903058 353.2239 
L 832.34534 353.2239 
L 838.203729 353.09818 
L 844.062118 353.2239 
L 867.495675 353.21914 
L 873.354065 353.050435 
L 879.212454 353.2239 
L 949.513125 353.2239 
L 949.513125 353.2239 
" style="fill:none;stroke:#434348;stroke-linecap:square;"/>
   </g>
   <g id="line2d_89">
    <path clip-path="url(#pc863197a52)" d="M 76.613125 353.2239 
L 82.471514 352.843799 
L 88.329904 353.2239 
L 574.576212 353.220319 
L 580.434602 353.026268 
L 586.292991 353.2239 
L 750.32789 353.21118 
L 756.186279 353.031644 
L 767.903058 353.21956 
L 832.34534 353.219131 
L 838.203729 353.089129 
L 844.062118 353.2239 
L 867.495675 353.218843 
L 873.354065 353.034839 
L 879.212454 353.2239 
L 949.513125 353.2239 
L 949.513125 353.2239 
" style="fill:none;stroke:#90ed7d;stroke-linecap:square;"/>
   </g>
   <g id="line2d_90">
    <path clip-path="url(#pc863197a52)" d="M 76.613125 353.2239 
L 82.471514 352.918838 
L 88.329904 353.2239 
L 574.576212 353.217159 
L 580.434602 352.993594 
L 586.292991 353.2239 
L 750.32789 353.215434 
L 756.186279 353.01022 
L 767.903058 353.2239 
L 832.34534 353.214094 
L 838.203729 353.085061 
L 844.062118 353.2239 
L 867.495675 353.21339 
L 873.354065 353.021726 
L 879.212454 353.2239 
L 949.513125 353.2239 
L 949.513125 353.2239 
" style="fill:none;stroke:#f7a35c;stroke-linecap:square;"/>
   </g>
   <g id="line2d_91">
    <path clip-path="url(#pc863197a52)" d="M 76.613125 353.2239 
L 82.471514 352.991088 
L 88.329904 353.2239 
L 574.576212 353.217905 
L 580.434602 353.112495 
L 586.292991 353.2239 
L 750.32789 353.20554 
L 756.186279 353.060929 
L 767.903058 353.2239 
L 867.495675 353.2239 
L 873.354065 353.097354 
L 879.212454 353.2239 
L 949.513125 353.2239 
L 949.513125 353.2239 
" style="fill:none;stroke:#8085e9;stroke-linecap:square;"/>
   </g>
   <g id="line2d_92">
    <path clip-path="url(#pc863197a52)" d="M 76.613125 353.2239 
L 82.471514 352.94566 
L 88.329904 353.2239 
L 574.576212 353.219742 
L 580.434602 353.096406 
L 586.292991 353.2239 
L 750.32789 353.213286 
L 756.186279 353.079157 
L 767.903058 353.2239 
L 949.513125 353.2239 
L 949.513125 353.2239 
" style="fill:none;stroke:#f15c80;stroke-linecap:square;"/>
   </g>
   <g id="line2d_93">
    <path clip-path="url(#pc863197a52)" d="M 76.613125 353.2239 
L 82.471514 352.873364 
L 88.329904 353.2239 
L 574.576212 353.2239 
L 580.434602 353.038492 
L 586.292991 353.2239 
L 750.32789 353.2239 
L 756.186279 353.076599 
L 767.903058 353.219349 
L 832.34534 353.2239 
L 838.203729 353.110172 
L 844.062118 353.2239 
L 867.495675 353.2239 
L 873.354065 353.073863 
L 879.212454 353.2239 
L 949.513125 353.2239 
L 949.513125 353.2239 
" style="fill:none;stroke:#e4d354;stroke-linecap:square;"/>
   </g>
   <g id="line2d_94">
    <path clip-path="url(#pc863197a52)" d="M 76.613125 353.2239 
L 82.471514 352.880659 
L 88.329904 353.2239 
L 574.576212 353.210455 
L 580.434602 353.022825 
L 586.292991 353.2239 
L 750.32789 353.211178 
L 756.186279 353.057353 
L 767.903058 353.2239 
L 832.34534 353.211554 
L 838.203729 353.078116 
L 844.062118 353.222108 
L 867.495675 353.209071 
L 873.354065 353.046242 
L 879.212454 353.2239 
L 949.513125 353.2239 
L 949.513125 353.2239 
" style="fill:none;stroke:#2b908f;stroke-linecap:square;"/>
   </g>
   <g id="line2d_95">
    <path clip-path="url(#pc863197a52)" d="M 76.613125 353.2239 
L 82.471514 352.894008 
L 88.329904 353.2239 
L 574.576212 353.21799 
L 580.434602 353.075419 
L 586.292991 353.2239 
L 750.32789 353.220182 
L 756.186279 353.069935 
L 767.903058 353.2239 
L 832.34534 353.219583 
L 838.203729 353.101605 
L 844.062118 353.2239 
L 879.212454 353.2239 
L 949.513125 353.2239 
L 949.513125 353.2239 
" style="fill:none;stroke:#f45b5b;stroke-linecap:square;"/>
   </g>
   <g id="line2d_96">
    <path clip-path="url(#pc863197a52)" d="M 76.613125 353.2239 
L 82.471514 352.937593 
L 88.329904 353.2239 
L 574.576212 353.214939 
L 580.434602 353.064826 
L 586.292991 353.2239 
L 750.32789 353.216443 
L 756.186279 353.016878 
L 762.044669 353.185893 
L 779.619836 353.2239 
L 832.34534 353.219592 
L 838.203729 353.084497 
L 844.062118 353.2239 
L 890.929232 353.2239 
L 949.513125 353.2239 
L 949.513125 353.2239 
" style="fill:none;stroke:#91e8e1;stroke-linecap:square;"/>
   </g>
   <g id="line2d_97">
    <path clip-path="url(#pc863197a52)" d="M 76.613125 353.2239 
L 82.471514 352.833065 
L 88.329904 353.2239 
L 574.576212 353.21572 
L 580.434602 353.018559 
L 586.292991 353.2239 
L 750.32789 353.214031 
L 756.186279 352.998368 
L 762.044669 353.180429 
L 779.619836 353.2239 
L 832.34534 353.2239 
L 838.203729 353.058349 
L 844.062118 353.2239 
L 873.354065 353.019497 
L 879.212454 353.2239 
L 949.513125 353.2239 
L 949.513125 353.2239 
" style="fill:none;stroke:#7cb5ec;stroke-linecap:square;"/>
   </g>
   <g id="line2d_98">
    <path clip-path="url(#pc863197a52)" d="M 76.613125 353.2239 
L 82.471514 352.951059 
L 88.329904 353.2239 
L 574.576212 353.21196 
L 580.434602 353.075988 
L 586.292991 353.2239 
L 750.32789 353.219001 
L 756.186279 353.110214 
L 767.903058 353.2239 
L 867.495675 353.217864 
L 873.354065 353.077267 
L 879.212454 353.2239 
L 949.513125 353.2239 
L 949.513125 353.2239 
" style="fill:none;stroke:#434348;stroke-linecap:square;"/>
   </g>
   <g id="line2d_99">
    <path clip-path="url(#pc863197a52)" d="M 76.613125 353.2239 
L 82.471514 352.950038 
L 88.329904 353.2239 
L 574.576212 353.218315 
L 580.434602 353.021981 
L 586.292991 353.2239 
L 750.32789 353.20372 
L 756.186279 353.040857 
L 762.044669 353.196567 
L 797.195004 353.2239 
L 832.34534 353.2239 
L 838.203729 353.063242 
L 844.062118 353.2239 
L 926.079568 353.2239 
L 949.513125 353.2239 
L 949.513125 353.2239 
" style="fill:none;stroke:#90ed7d;stroke-linecap:square;"/>
   </g>
   <g id="line2d_100">
    <path clip-path="url(#pc863197a52)" d="M 76.613125 353.2239 
L 82.471514 352.918438 
L 88.329904 353.2239 
L 574.576212 353.2239 
L 580.434602 353.088175 
L 586.292991 353.2239 
L 750.32789 353.209219 
L 756.186279 353.075806 
L 767.903058 353.2239 
L 949.513125 353.2239 
L 949.513125 353.2239 
" style="fill:none;stroke:#f7a35c;stroke-linecap:square;"/>
   </g>
   <g id="line2d_101">
    <path clip-path="url(#pc863197a52)" d="M 76.613125 353.2239 
L 82.471514 352.960483 
L 88.329904 353.2239 
L 574.576212 353.2239 
L 580.434602 353.061249 
L 586.292991 353.2239 
L 750.32789 353.2239 
L 756.186279 353.070624 
L 762.044669 353.209813 
L 808.911783 353.2239 
L 832.34534 353.2239 
L 838.203729 353.101085 
L 844.062118 353.2239 
L 920.221179 353.2239 
L 949.513125 353.2239 
L 949.513125 353.2239 
" style="fill:none;stroke:#8085e9;stroke-linecap:square;"/>
   </g>
   <g id="line2d_102">
    <path clip-path="url(#pc863197a52)" d="M 76.613125 353.2239 
L 82.471514 352.917505 
L 88.329904 353.2239 
L 574.576212 353.218629 
L 580.434602 353.049192 
L 586.292991 353.2239 
L 750.32789 353.204588 
L 756.186279 353.029126 
L 762.044669 353.19116 
L 785.478226 353.2239 
L 867.495675 353.2239 
L 873.354065 353.090025 
L 879.212454 353.2239 
L 949.513125 353.2239 
L 949.513125 353.2239 
" style="fill:none;stroke:#f15c80;stroke-linecap:square;"/>
   </g>
   <g id="line2d_103">
    <path clip-path="url(#pc863197a52)" d="M 76.613125 353.2239 
L 82.471514 352.895082 
L 88.329904 353.2239 
L 574.576212 353.2239 
L 580.434602 353.014187 
L 586.292991 353.2239 
L 750.32789 353.216964 
L 756.186279 353.024614 
L 767.903058 353.2239 
L 832.34534 353.2239 
L 838.203729 353.105089 
L 844.062118 353.2239 
L 879.212454 353.2239 
L 949.513125 353.2239 
L 949.513125 353.2239 
" style="fill:none;stroke:#e4d354;stroke-linecap:square;"/>
   </g>
   <g id="line2d_104">
    <path clip-path="url(#pc863197a52)" d="M 76.613125 353.2239 
L 82.471514 352.930265 
L 88.329904 353.2239 
L 574.576212 353.2239 
L 580.434602 353.086416 
L 586.292991 353.2239 
L 750.32789 353.216288 
L 756.186279 353.08571 
L 767.903058 353.2239 
L 867.495675 353.2239 
L 873.354065 353.111625 
L 879.212454 353.2239 
L 949.513125 353.2239 
L 949.513125 353.2239 
" style="fill:none;stroke:#2b908f;stroke-linecap:square;"/>
   </g>
   <g id="line2d_105">
    <path clip-path="url(#pc863197a52)" d="M 76.613125 353.2239 
L 82.471514 352.932989 
L 88.329904 353.2239 
L 574.576212 353.2239 
L 580.434602 353.054571 
L 586.292991 353.2239 
L 750.32789 353.219641 
L 756.186279 353.064737 
L 767.903058 353.2239 
L 949.513125 353.2239 
L 949.513125 353.2239 
" style="fill:none;stroke:#f45b5b;stroke-linecap:square;"/>
   </g>
   <g id="line2d_106">
    <path clip-path="url(#pc863197a52)" d="M 76.613125 353.2239 
L 82.471514 352.860372 
L 88.329904 353.2239 
L 574.576212 353.221786 
L 580.434602 353.022286 
L 586.292991 353.2239 
L 750.32789 353.207608 
L 756.186279 353.019422 
L 762.044669 353.188304 
L 785.478226 353.2239 
L 832.34534 353.222509 
L 838.203729 353.055641 
L 844.062118 353.222487 
L 867.495675 353.220978 
L 873.354065 353.047025 
L 879.212454 353.2239 
L 949.513125 353.2239 
L 949.513125 353.2239 
" style="fill:none;stroke:#91e8e1;stroke-linecap:square;"/>
   </g>
   <g id="line2d_107">
    <path clip-path="url(#pc863197a52)" d="M 76.613125 353.2239 
L 82.471514 352.801918 
L 88.329904 353.2239 
L 574.576212 353.215335 
L 580.434602 353.107771 
L 586.292991 353.2239 
L 750.32789 353.218629 
L 756.186279 353.048338 
L 762.044669 353.202423 
L 797.195004 353.2239 
L 832.34534 353.2239 
L 838.203729 353.094902 
L 844.062118 353.2239 
L 867.495675 353.2239 
L 873.354065 353.06569 
L 879.212454 353.2239 
L 949.513125 353.2239 
L 949.513125 353.2239 
" style="fill:none;stroke:#7cb5ec;stroke-linecap:square;"/>
   </g>
   <g id="line2d_108">
    <path clip-path="url(#pc863197a52)" d="M 76.613125 353.2239 
L 82.471514 352.909292 
L 88.329904 353.2239 
L 574.576212 353.22039 
L 580.434602 353.015876 
L 586.292991 353.2239 
L 750.32789 353.219556 
L 756.186279 353.009082 
L 762.044669 353.184072 
L 779.619836 353.2239 
L 832.34534 353.2239 
L 838.203729 353.061911 
L 844.062118 353.2239 
L 867.495675 353.2239 
L 873.354065 353.050129 
L 879.212454 353.2239 
L 949.513125 353.2239 
L 949.513125 353.2239 
" style="fill:none;stroke:#434348;stroke-linecap:square;"/>
   </g>
   <g id="line2d_109">
    <path clip-path="url(#pc863197a52)" d="M 76.613125 353.2239 
L 82.471514 352.892864 
L 88.329904 353.2239 
L 574.576212 353.213814 
L 580.434602 353.02137 
L 586.292991 353.2239 
L 750.32789 353.211733 
L 756.186279 353.039915 
L 767.903058 353.2239 
L 832.34534 353.214722 
L 838.203729 353.094155 
L 844.062118 353.2239 
L 885.070843 353.2239 
L 949.513125 353.2239 
L 949.513125 353.2239 
" style="fill:none;stroke:#90ed7d;stroke-linecap:square;"/>
   </g>
   <g id="line2d_110">
    <path clip-path="url(#pc863197a52)" d="M 76.613125 353.2239 
L 82.471514 352.916974 
L 88.329904 353.2239 
L 574.576212 353.217959 
L 580.434602 353.033026 
L 586.292991 353.2239 
L 750.32789 353.213146 
L 756.186279 353.050424 
L 767.903058 353.2239 
L 832.34534 353.2239 
L 838.203729 353.096662 
L 844.062118 353.2239 
L 867.495675 353.219572 
L 873.354065 353.057586 
L 879.212454 353.2239 
L 949.513125 353.2239 
L 949.513125 353.2239 
" style="fill:none;stroke:#f7a35c;stroke-linecap:square;"/>
   </g>
   <g id="line2d_111">
    <path clip-path="url(#pc863197a52)" d="M 76.613125 353.2239 
L 82.471514 352.923092 
L 88.329904 353.2239 
L 574.576212 353.214894 
L 580.434602 353.009887 
L 586.292991 353.2239 
L 750.32789 353.202143 
L 756.186279 353.033796 
L 762.044669 353.19441 
L 785.478226 353.2239 
L 832.34534 353.215697 
L 838.203729 353.074795 
L 844.062118 353.2239 
L 867.495675 353.215182 
L 873.354065 353.038881 
L 879.212454 353.2239 
L 949.513125 353.2239 
L 949.513125 353.2239 
" style="fill:none;stroke:#8085e9;stroke-linecap:square;"/>
   </g>
   <g id="line2d_112">
    <path clip-path="url(#pc863197a52)" d="M 76.613125 353.2239 
L 82.471514 352.914778 
L 88.329904 353.2239 
L 574.576212 353.220742 
L 580.434602 353.052594 
L 586.292991 353.2239 
L 750.32789 353.216078 
L 756.186279 353.050211 
L 762.044669 353.196008 
L 785.478226 353.2239 
L 832.34534 353.2239 
L 838.203729 353.07373 
L 844.062118 353.2239 
L 873.354065 353.04804 
L 879.212454 353.2239 
L 949.513125 353.2239 
L 949.513125 353.2239 
" style="fill:none;stroke:#f15c80;stroke-linecap:square;"/>
   </g>
   <g id="line2d_113">
    <path clip-path="url(#pc863197a52)" d="M 76.613125 353.2239 
L 82.471514 352.836851 
L 88.329904 353.2239 
L 574.576212 353.217824 
L 580.434602 353.025541 
L 586.292991 353.2239 
L 750.32789 353.220138 
L 756.186279 353.030242 
L 762.044669 353.197067 
L 791.336615 353.2239 
L 832.34534 353.2239 
L 838.203729 353.101058 
L 844.062118 353.2239 
L 867.495675 353.2239 
L 873.354065 353.068505 
L 879.212454 353.2239 
L 949.513125 353.2239 
L 949.513125 353.2239 
" style="fill:none;stroke:#e4d354;stroke-linecap:square;"/>
   </g>
   <g id="line2d_114">
    <path clip-path="url(#pc863197a52)" d="M 76.613125 353.2239 
L 82.471514 352.892328 
L 88.329904 353.2239 
L 574.576212 353.2239 
L 580.434602 353.069375 
L 586.292991 353.2239 
L 750.32789 353.206822 
L 756.186279 353.02753 
L 762.044669 353.189154 
L 785.478226 353.2239 
L 867.495675 353.2239 
L 873.354065 353.081336 
L 879.212454 353.2239 
L 949.513125 353.2239 
L 949.513125 353.2239 
" style="fill:none;stroke:#2b908f;stroke-linecap:square;"/>
   </g>
   <g id="line2d_115">
    <path clip-path="url(#pc863197a52)" d="M 76.613125 353.2239 
L 82.471514 352.881363 
L 88.329904 353.2239 
L 574.576212 353.220081 
L 580.434602 353.085808 
L 586.292991 353.2239 
L 750.32789 353.21452 
L 756.186279 353.086675 
L 767.903058 353.2239 
L 867.495675 353.2239 
L 873.354065 353.090393 
L 879.212454 353.2239 
L 949.513125 353.2239 
L 949.513125 353.2239 
" style="fill:none;stroke:#f45b5b;stroke-linecap:square;"/>
   </g>
   <g id="line2d_116">
    <path clip-path="url(#pc863197a52)" d="M 76.613125 353.2239 
L 82.471514 352.927389 
L 88.329904 353.2239 
L 574.576212 353.220515 
L 580.434602 353.111653 
L 586.292991 353.2239 
L 949.513125 353.2239 
L 949.513125 353.2239 
" style="fill:none;stroke:#91e8e1;stroke-linecap:square;"/>
   </g>
   <g id="line2d_117">
    <path clip-path="url(#pc863197a52)" d="M 76.613125 353.2239 
L 82.471514 352.967703 
L 88.329904 353.2239 
L 574.576212 353.217241 
L 580.434602 353.049969 
L 586.292991 353.2239 
L 750.32789 353.218449 
L 756.186279 353.089251 
L 767.903058 353.2239 
L 867.495675 353.220637 
L 873.354065 353.082154 
L 879.212454 353.2239 
L 949.513125 353.2239 
L 949.513125 353.2239 
" style="fill:none;stroke:#7cb5ec;stroke-linecap:square;"/>
   </g>
   <g id="line2d_118">
    <path clip-path="url(#pc863197a52)" d="M 76.613125 353.2239 
L 82.471514 352.900745 
L 88.329904 353.2239 
L 574.576212 353.220527 
L 580.434602 353.013936 
L 586.292991 353.2239 
L 750.32789 353.219862 
L 756.186279 352.975679 
L 762.044669 353.186992 
L 785.478226 353.2239 
L 832.34534 353.2239 
L 838.203729 353.054713 
L 844.062118 353.2239 
L 867.495675 353.2239 
L 873.354065 353.05427 
L 879.212454 353.2239 
L 949.513125 353.2239 
L 949.513125 353.2239 
" style="fill:none;stroke:#434348;stroke-linecap:square;"/>
   </g>
   <g id="line2d_119">
    <path clip-path="url(#pc863197a52)" d="M 76.613125 353.2239 
L 82.471514 352.928672 
L 88.329904 353.2239 
L 574.576212 353.221665 
L 580.434602 353.077967 
L 586.292991 353.2239 
L 750.32789 353.215642 
L 756.186279 353.073917 
L 767.903058 353.2239 
L 867.495675 353.213797 
L 873.354065 353.087616 
L 879.212454 353.2239 
L 949.513125 353.2239 
L 949.513125 353.2239 
" style="fill:none;stroke:#90ed7d;stroke-linecap:square;"/>
   </g>
   <g id="line2d_120">
    <path clip-path="url(#pc863197a52)" d="M 76.613125 353.2239 
L 82.471514 352.932648 
L 88.329904 353.2239 
L 574.576212 353.22047 
L 580.434602 353.048185 
L 586.292991 353.2239 
L 750.32789 353.219669 
L 756.186279 353.074489 
L 767.903058 353.2239 
L 832.34534 353.2239 
L 838.203729 353.106185 
L 844.062118 353.2239 
L 867.495675 353.2239 
L 873.354065 353.050473 
L 879.212454 353.2239 
L 949.513125 353.2239 
L 949.513125 353.2239 
" style="fill:none;stroke:#f7a35c;stroke-linecap:square;"/>
   </g>
   <g id="line2d_121">
    <path clip-path="url(#pc863197a52)" d="M 76.613125 353.2239 
L 82.471514 352.938527 
L 88.329904 353.2239 
L 574.576212 353.216952 
L 580.434602 353.019249 
L 586.292991 353.2239 
L 750.32789 353.221099 
L 756.186279 353.017733 
L 762.044669 353.201119 
L 791.336615 353.2239 
L 832.34534 353.2239 
L 838.203729 353.099134 
L 844.062118 353.2239 
L 873.354065 353.087787 
L 879.212454 353.2239 
L 949.513125 353.2239 
L 949.513125 353.2239 
" style="fill:none;stroke:#8085e9;stroke-linecap:square;"/>
   </g>
   <g id="line2d_122">
    <path clip-path="url(#pc863197a52)" d="M 76.613125 353.2239 
L 82.471514 352.879325 
L 88.329904 353.2239 
L 574.576212 353.2239 
L 580.434602 353.047413 
L 586.292991 353.2239 
L 750.32789 353.217794 
L 756.186279 353.042286 
L 762.044669 353.192865 
L 785.478226 353.2239 
L 832.34534 353.2239 
L 838.203729 353.074173 
L 844.062118 353.2239 
L 867.495675 353.2239 
L 873.354065 353.050194 
L 879.212454 353.2239 
L 949.513125 353.2239 
L 949.513125 353.2239 
" style="fill:none;stroke:#f15c80;stroke-linecap:square;"/>
   </g>
   <g id="line2d_123">
    <path clip-path="url(#pc863197a52)" d="M 76.613125 353.2239 
L 82.471514 352.960057 
L 88.329904 353.2239 
L 574.576212 353.218397 
L 580.434602 353.074634 
L 586.292991 353.2239 
L 750.32789 353.217098 
L 756.186279 353.083216 
L 767.903058 353.2239 
L 867.495675 353.211408 
L 873.354065 353.105933 
L 879.212454 353.2239 
L 949.513125 353.2239 
L 949.513125 353.2239 
" style="fill:none;stroke:#e4d354;stroke-linecap:square;"/>
   </g>
   <g id="line2d_124">
    <path clip-path="url(#pc863197a52)" d="M 76.613125 353.2239 
L 82.471514 352.899442 
L 88.329904 353.2239 
L 574.576212 353.2239 
L 580.434602 353.081656 
L 586.292991 353.2239 
L 750.32789 353.219566 
L 756.186279 353.057788 
L 767.903058 353.2239 
L 867.495675 353.2239 
L 873.354065 353.052997 
L 879.212454 353.2239 
L 949.513125 353.2239 
L 949.513125 353.2239 
" style="fill:none;stroke:#2b908f;stroke-linecap:square;"/>
   </g>
   <g id="line2d_125">
    <path clip-path="url(#pc863197a52)" d="M 76.613125 353.2239 
L 82.471514 352.838508 
L 88.329904 353.2239 
L 574.576212 353.210528 
L 580.434602 353.042639 
L 586.292991 353.2239 
L 750.32789 353.211647 
L 756.186279 353.046721 
L 767.903058 353.2239 
L 867.495675 353.203924 
L 873.354065 353.077366 
L 879.212454 353.2239 
L 949.513125 353.2239 
L 949.513125 353.2239 
" style="fill:none;stroke:#f45b5b;stroke-linecap:square;"/>
   </g>
   <g id="line2d_126">
    <path clip-path="url(#pc863197a52)" d="M 76.613125 353.2239 
L 82.471514 352.953167 
L 88.329904 353.2239 
L 574.576212 353.220937 
L 580.434602 353.039502 
L 586.292991 353.2239 
L 750.32789 353.216858 
L 756.186279 353.011101 
L 767.903058 353.2239 
L 832.34534 353.219963 
L 838.203729 353.068975 
L 844.062118 353.2239 
L 867.495675 353.21974 
L 873.354065 353.07265 
L 879.212454 353.2239 
L 949.513125 353.2239 
L 949.513125 353.2239 
" style="fill:none;stroke:#91e8e1;stroke-linecap:square;"/>
   </g>
   <g id="line2d_127">
    <path clip-path="url(#pc863197a52)" d="M 76.613125 353.2239 
L 82.471514 352.890916 
L 88.329904 353.2239 
L 574.576212 353.213673 
L 580.434602 353.032216 
L 586.292991 353.2239 
L 750.32789 353.211585 
L 756.186279 353.045959 
L 762.044669 353.190524 
L 785.478226 353.2239 
L 832.34534 353.214607 
L 838.203729 353.073731 
L 844.062118 353.2239 
L 867.495675 353.214019 
L 873.354065 353.079094 
L 879.212454 353.2239 
L 949.513125 353.2239 
L 949.513125 353.2239 
" style="fill:none;stroke:#7cb5ec;stroke-linecap:square;"/>
   </g>
   <g id="line2d_128">
    <path clip-path="url(#pc863197a52)" d="M 76.613125 353.2239 
L 82.471514 352.892263 
L 88.329904 353.2239 
L 574.576212 353.217344 
L 580.434602 353.029742 
L 586.292991 353.2239 
L 750.32789 353.208296 
L 756.186279 353.015611 
L 762.044669 353.200143 
L 791.336615 353.2239 
L 832.34534 353.215182 
L 838.203729 353.091978 
L 844.062118 353.2239 
L 867.495675 353.21469 
L 873.354065 353.037896 
L 879.212454 353.2239 
L 949.513125 353.2239 
L 949.513125 353.2239 
" style="fill:none;stroke:#434348;stroke-linecap:square;"/>
   </g>
   <g id="line2d_129">
    <path clip-path="url(#pc863197a52)" d="M 76.613125 353.2239 
L 82.471514 352.937727 
L 88.329904 353.2239 
L 574.576212 353.2163 
L 580.434602 353.040753 
L 586.292991 353.2239 
L 750.32789 353.21024 
L 756.186279 353.072468 
L 767.903058 353.2239 
L 832.34534 353.218778 
L 838.203729 353.110164 
L 844.062118 353.2239 
L 867.495675 353.218472 
L 873.354065 353.075829 
L 879.212454 353.2239 
L 949.513125 353.2239 
L 949.513125 353.2239 
" style="fill:none;stroke:#90ed7d;stroke-linecap:square;"/>
   </g>
   <g id="line2d_130">
    <path clip-path="url(#pc863197a52)" d="M 76.613125 353.2239 
L 82.471514 352.874101 
L 88.329904 353.2239 
L 574.576212 353.218593 
L 580.434602 353.049392 
L 586.292991 353.2239 
L 750.32789 353.219125 
L 756.186279 353.065156 
L 767.903058 353.222272 
L 832.34534 353.218571 
L 838.203729 353.109252 
L 844.062118 353.2239 
L 931.937957 353.2239 
L 949.513125 353.2239 
L 949.513125 353.2239 
" style="fill:none;stroke:#f7a35c;stroke-linecap:square;"/>
   </g>
   <g id="line2d_131">
    <path clip-path="url(#pc863197a52)" d="M 76.613125 353.2239 
L 82.471514 352.901987 
L 88.329904 353.2239 
L 750.32789 353.217933 
L 756.186279 353.073027 
L 767.903058 353.2239 
L 949.513125 353.2239 
L 949.513125 353.2239 
" style="fill:none;stroke:#8085e9;stroke-linecap:square;"/>
   </g>
   <g id="line2d_132">
    <path clip-path="url(#pc863197a52)" d="M 76.613125 353.2239 
L 82.471514 352.943115 
L 88.329904 353.2239 
L 574.576212 353.217395 
L 580.434602 353.057302 
L 586.292991 353.2239 
L 750.32789 353.219924 
L 756.186279 353.04341 
L 767.903058 353.2239 
L 832.34534 353.219362 
L 838.203729 353.090916 
L 844.062118 353.2239 
L 885.070843 353.2239 
L 949.513125 353.2239 
L 949.513125 353.2239 
" style="fill:none;stroke:#f15c80;stroke-linecap:square;"/>
   </g>
   <g id="line2d_133">
    <path clip-path="url(#pc863197a52)" d="M 76.613125 353.2239 
L 82.471514 352.939932 
L 88.329904 353.2239 
L 574.576212 353.22112 
L 580.434602 353.032745 
L 586.292991 353.2239 
L 750.32789 353.218992 
L 756.186279 352.99992 
L 762.044669 353.182451 
L 779.619836 353.2239 
L 832.34534 353.222093 
L 838.203729 353.056334 
L 844.062118 353.2239 
L 867.495675 353.222004 
L 873.354065 353.023104 
L 879.212454 353.2239 
L 949.513125 353.2239 
L 949.513125 353.2239 
" style="fill:none;stroke:#e4d354;stroke-linecap:square;"/>
   </g>
   <g id="line2d_134">
    <path clip-path="url(#pc863197a52)" d="M 76.613125 353.2239 
L 82.471514 352.929946 
L 88.329904 353.2239 
L 574.576212 353.220081 
L 580.434602 353.085674 
L 586.292991 353.2239 
L 750.32789 353.214258 
L 756.186279 353.075476 
L 767.903058 353.2239 
L 867.495675 353.2239 
L 873.354065 353.104417 
L 879.212454 353.2239 
L 949.513125 353.2239 
L 949.513125 353.2239 
" style="fill:none;stroke:#2b908f;stroke-linecap:square;"/>
   </g>
   <g id="line2d_135">
    <path clip-path="url(#pc863197a52)" d="M 32.968125 353.2239 
L 993.158125 353.2239 
" style="fill:none;stroke:#dedede;stroke-linecap:square;stroke-width:2;"/>
   </g>
   <g id="text_17">
    <!-- Fastp: Read N Content -->
    <defs>
     <path d="M 9.8125 72.90625 
L 51.703125 72.90625 
L 51.703125 64.59375 
L 19.671875 64.59375 
L 19.671875 43.109375 
L 48.578125 43.109375 
L 48.578125 34.8125 
L 19.671875 34.8125 
L 19.671875 0 
L 9.8125 0 
z
" id="DejaVuSans-70"/>
     <path d="M 18.109375 8.203125 
L 18.109375 -20.796875 
L 9.078125 -20.796875 
L 9.078125 54.6875 
L 18.109375 54.6875 
L 18.109375 46.390625 
Q 20.953125 51.265625 25.265625 53.625 
Q 29.59375 56 35.59375 56 
Q 45.5625 56 51.78125 48.09375 
Q 58.015625 40.1875 58.015625 27.296875 
Q 58.015625 14.40625 51.78125 6.484375 
Q 45.5625 -1.421875 35.59375 -1.421875 
Q 29.59375 -1.421875 25.265625 0.953125 
Q 20.953125 3.328125 18.109375 8.203125 
z
M 48.6875 27.296875 
Q 48.6875 37.203125 44.609375 42.84375 
Q 40.53125 48.484375 33.40625 48.484375 
Q 26.265625 48.484375 22.1875 42.84375 
Q 18.109375 37.203125 18.109375 27.296875 
Q 18.109375 17.390625 22.1875 11.75 
Q 26.265625 6.109375 33.40625 6.109375 
Q 40.53125 6.109375 44.609375 11.75 
Q 48.6875 17.390625 48.6875 27.296875 
z
" id="DejaVuSans-112"/>
     <path d="M 9.8125 72.90625 
L 23.09375 72.90625 
L 55.421875 11.921875 
L 55.421875 72.90625 
L 64.984375 72.90625 
L 64.984375 0 
L 51.703125 0 
L 19.390625 60.984375 
L 19.390625 0 
L 9.8125 0 
z
" id="DejaVuSans-78"/>
    </defs>
    <g transform="translate(422.606875 19.3575)scale(0.16 -0.16)">
     <use xlink:href="#DejaVuSans-70"/>
     <use x="57.378906" xlink:href="#DejaVuSans-97"/>
     <use x="118.658203" xlink:href="#DejaVuSans-115"/>
     <use x="170.757812" xlink:href="#DejaVuSans-116"/>
     <use x="209.966797" xlink:href="#DejaVuSans-112"/>
     <use x="273.443359" xlink:href="#DejaVuSans-58"/>
     <use x="307.134766" xlink:href="#DejaVuSans-32"/>
     <use x="338.921875" xlink:href="#DejaVuSans-82"/>
     <use x="408.341797" xlink:href="#DejaVuSans-101"/>
     <use x="469.865234" xlink:href="#DejaVuSans-97"/>
     <use x="531.144531" xlink:href="#DejaVuSans-100"/>
     <use x="594.621094" xlink:href="#DejaVuSans-32"/>
     <use x="626.408203" xlink:href="#DejaVuSans-78"/>
     <use x="701.212891" xlink:href="#DejaVuSans-32"/>
     <use x="733" xlink:href="#DejaVuSans-67"/>
     <use x="802.824219" xlink:href="#DejaVuSans-111"/>
     <use x="864.005859" xlink:href="#DejaVuSans-110"/>
     <use x="927.384766" xlink:href="#DejaVuSans-116"/>
     <use x="966.59375" xlink:href="#DejaVuSans-101"/>
     <use x="1028.117188" xlink:href="#DejaVuSans-110"/>
     <use x="1091.496094" xlink:href="#DejaVuSans-116"/>
    </g>
   </g>
  </g>
 </g>
 <defs>
  <clipPath id="pc863197a52">
   <rect height="317.968" width="960.19" x="32.968125" y="35.2559"/>
  </clipPath>
 </defs>
</svg>
